# Blender v3.0.0 OBJ File: ''
# www.blender.org
mtllib bola2.mtl
o POOL_TABLE.026
v -0.411493 1.038676 -0.040557
v -0.407209 1.036449 -0.050899
v -0.411493 1.036449 -0.051751
v -0.415777 1.036449 -0.050899
v -0.419408 1.036449 -0.048472
v -0.421835 1.036449 -0.044841
v -0.422687 1.036449 -0.040557
v -0.421835 1.036449 -0.036273
v -0.419408 1.036449 -0.032642
v -0.415777 1.036449 -0.030215
v -0.411493 1.036449 -0.029363
v -0.407209 1.036449 -0.030215
v -0.403578 1.036449 -0.032642
v -0.401151 1.036449 -0.036273
v -0.400299 1.036449 -0.040557
v -0.401152 1.036449 -0.044841
v -0.403578 1.036449 -0.048472
v -0.396868 1.030108 -0.055182
v -0.403578 1.030108 -0.059666
v -0.392384 1.020619 -0.059666
v -0.401152 1.020619 -0.065524
v -0.411493 1.030108 -0.061240
v -0.419408 1.030108 -0.059666
v -0.411493 1.020619 -0.067581
v -0.400299 1.009425 -0.067581
v -0.421835 1.020619 -0.065524
v -0.411493 1.009425 -0.069808
v -0.390810 1.009425 -0.061240
v -0.392384 0.998231 -0.059666
v -0.401152 0.998231 -0.065524
v -0.396868 0.988742 -0.055182
v -0.403578 0.988742 -0.059666
v -0.411493 0.998231 -0.067581
v -0.422687 1.009425 -0.067581
v -0.421835 0.998231 -0.065524
v -0.411493 0.988742 -0.061240
v -0.432176 1.009425 -0.061240
v -0.430602 1.020619 -0.059666
v -0.436460 1.020619 -0.050899
v -0.438517 1.009425 -0.051751
v -0.430602 0.998231 -0.059666
v -0.430602 1.030108 -0.048472
v -0.432176 1.030108 -0.040557
v -0.438517 1.020619 -0.040557
v -0.430602 1.030108 -0.032642
v -0.426118 1.030108 -0.025932
v -0.436460 1.020619 -0.030215
v -0.440744 1.009425 -0.040557
v -0.430602 1.020619 -0.021448
v -0.438517 1.009425 -0.029363
v -0.438517 0.998231 -0.040557
v -0.432176 1.009425 -0.019874
v -0.436460 0.998231 -0.030215
v -0.432176 0.988742 -0.040557
v -0.430602 0.998231 -0.021448
v -0.430602 0.988742 -0.032642
v -0.422687 0.982401 -0.040557
v -0.426118 0.988742 -0.025932
v -0.421835 0.982401 -0.036273
v -0.411493 0.980174 -0.040557
v -0.419408 0.982401 -0.032642
v -0.421835 0.982401 -0.044841
v -0.419408 0.982401 -0.048472
v -0.415777 0.982401 -0.050899
v -0.401151 0.982401 -0.036273
v -0.403578 0.982401 -0.032642
v -0.407209 0.982401 -0.030215
v -0.400299 0.982401 -0.040557
v -0.401152 0.982401 -0.044841
v -0.403578 0.982401 -0.048472
v -0.415777 0.982401 -0.030215
v -0.407209 0.982401 -0.050899
v -0.411493 0.982401 -0.051751
v -0.411493 0.982401 -0.029363
v -0.426118 0.988742 -0.055182
v -0.419408 0.988742 -0.059666
v -0.436460 0.998231 -0.050899
v -0.430602 0.988742 -0.048472
v -0.396868 0.988742 -0.025932
v -0.403578 0.988742 -0.021448
v -0.392384 0.998231 -0.021448
v -0.401151 0.998231 -0.015590
v -0.411493 0.988742 -0.019874
v -0.390810 1.009425 -0.019874
v -0.400299 1.009425 -0.013533
v -0.411493 0.998231 -0.013533
v -0.392384 1.020619 -0.021448
v -0.401151 1.020619 -0.015590
v -0.411493 1.009425 -0.011306
v -0.396868 1.030108 -0.025932
v -0.403578 1.030108 -0.021448
v -0.411493 1.020619 -0.013533
v -0.411493 1.030108 -0.019874
v -0.419408 1.030108 -0.021448
v -0.421835 1.020619 -0.015590
v -0.422687 1.009425 -0.013533
v -0.421835 0.998231 -0.015590
v -0.419408 0.988742 -0.021448
v -0.392384 1.030108 -0.032642
v -0.390810 1.030108 -0.040557
v -0.386526 1.020619 -0.030215
v -0.384469 1.020619 -0.040557
v -0.384469 1.009425 -0.029363
v -0.382243 1.009425 -0.040557
v -0.386526 0.998231 -0.030215
v -0.384469 0.998231 -0.040557
v -0.392384 0.988742 -0.032642
v -0.390810 0.988742 -0.040557
v -0.386526 0.998231 -0.050899
v -0.392384 0.988742 -0.048472
v -0.384469 1.009425 -0.051751
v -0.386526 1.020619 -0.050899
v -0.392384 1.030108 -0.048472
v -0.426118 1.030108 -0.055182
vt 0.344810 0.959684
vt 0.349578 0.966820
vt 0.346485 0.968101
vt 0.343137 0.968101
vt 0.340042 0.966820
vt 0.337674 0.964452
vt 0.336394 0.961357
vt 0.336394 0.958009
vt 0.337674 0.954916
vt 0.340042 0.952548
vt 0.343137 0.951266
vt 0.346485 0.951266
vt 0.349578 0.952548
vt 0.351947 0.954916
vt 0.353227 0.958009
vt 0.353227 0.961357
vt 0.351947 0.964452
vt 0.782923 0.848004
vt 0.788282 0.848004
vt 0.788282 0.853612
vt 0.782923 0.853612
vt 0.777563 0.848004
vt 0.788282 0.859220
vt 0.782923 0.859220
vt 0.777563 0.853612
vt 0.857951 0.848004
vt 0.863311 0.848004
vt 0.863311 0.853612
vt 0.857951 0.853612
vt 0.863311 0.859220
vt 0.777563 0.859220
vt 0.782923 0.864828
vt 0.857951 0.859220
vt 0.863311 0.864828
vt 0.777563 0.864828
vt 0.788282 0.864828
vt 0.788282 0.870436
vt 0.782923 0.870436
vt 0.788282 0.876044
vt 0.782923 0.876044
vt 0.777563 0.870436
vt 0.857951 0.864828
vt 0.863311 0.870436
vt 0.857951 0.870436
vt 0.863311 0.876044
vt 0.777563 0.876044
vt 0.852592 0.864828
vt 0.852592 0.859220
vt 0.847233 0.859220
vt 0.847233 0.864828
vt 0.852592 0.870436
vt 0.847233 0.853612
vt 0.841873 0.853612
vt 0.841873 0.859220
vt 0.841873 0.848004
vt 0.836514 0.848004
vt 0.836514 0.853612
vt 0.831155 0.848004
vt 0.831155 0.853612
vt 0.836514 0.859220
vt 0.841873 0.864828
vt 0.831155 0.859220
vt 0.836514 0.864828
vt 0.841873 0.870436
vt 0.831155 0.864828
vt 0.836514 0.870436
vt 0.841873 0.876044
vt 0.831155 0.870436
vt 0.836514 0.876044
vt 0.841873 0.881652
vt 0.831155 0.876044
vt 0.836514 0.881652
vt 0.929711 0.929713
vt 0.934479 0.922577
vt 0.936847 0.924946
vt 0.931385 0.921296
vt 0.831155 0.881652
vt 0.938128 0.928039
vt 0.938128 0.931388
vt 0.936847 0.934481
vt 0.921294 0.931388
vt 0.921294 0.928039
vt 0.922575 0.924946
vt 0.922575 0.934481
vt 0.924943 0.936850
vt 0.928037 0.938131
vt 0.928037 0.921296
vt 0.931385 0.938131
vt 0.934479 0.936850
vt 0.924943 0.922577
vt 0.857951 0.881652
vt 0.852592 0.881652
vt 0.852592 0.876044
vt 0.857951 0.876044
vt 0.863311 0.881652
vt 0.847233 0.870436
vt 0.847233 0.876044
vt 0.847233 0.881652
vt 0.815077 0.881652
vt 0.809718 0.881652
vt 0.809718 0.876044
vt 0.815077 0.876044
vt 0.820436 0.881652
vt 0.809718 0.870436
vt 0.815077 0.870436
vt 0.820436 0.876044
vt 0.809718 0.864828
vt 0.815077 0.864828
vt 0.820436 0.870436
vt 0.809718 0.859220
vt 0.815077 0.859220
vt 0.820436 0.864828
vt 0.809718 0.853612
vt 0.815077 0.853612
vt 0.820436 0.859220
vt 0.809718 0.848004
vt 0.815077 0.848004
vt 0.820436 0.853612
vt 0.825796 0.853612
vt 0.825796 0.859220
vt 0.820436 0.848004
vt 0.825796 0.864828
vt 0.825796 0.870436
vt 0.825796 0.876044
vt 0.825796 0.881652
vt 0.825796 0.848004
vt 0.804358 0.848004
vt 0.804358 0.853612
vt 0.799000 0.848004
vt 0.799000 0.853612
vt 0.804358 0.859220
vt 0.799000 0.859220
vt 0.804358 0.864828
vt 0.799000 0.864828
vt 0.804358 0.870436
vt 0.799000 0.870436
vt 0.804358 0.876044
vt 0.799000 0.876044
vt 0.804358 0.881652
vt 0.793641 0.870436
vt 0.793641 0.876044
vt 0.799000 0.881652
vt 0.793641 0.864828
vt 0.793641 0.859220
vt 0.793641 0.853612
vt 0.793641 0.848004
vt 0.793641 0.881652
vt 0.782923 0.881652
vt 0.777563 0.881652
vt 0.788282 0.881652
vt 0.852592 0.853612
vt 0.847233 0.848004
vt 0.852592 0.848004
vn 0.0000 1.0000 -0.0000
vn 0.1543 0.9151 -0.3724
vn -0.0000 0.9151 -0.4031
vn -0.1543 0.9151 -0.3724
vn -0.2850 0.9151 -0.2851
vn -0.3724 0.9151 -0.1543
vn -0.4031 0.9151 0.0000
vn -0.3724 0.9151 0.1543
vn -0.2851 0.9151 0.2850
vn -0.1543 0.9151 0.3724
vn 0.0000 0.9151 0.4031
vn 0.1543 0.9151 0.3724
vn 0.2850 0.9152 0.2850
vn 0.3724 0.9151 0.1543
vn 0.4031 0.9151 -0.0001
vn 0.3724 0.9152 -0.1543
vn 0.2851 0.9151 -0.2850
vn 0.5083 0.6952 -0.5083
vn 0.2751 0.6952 -0.6641
vn 0.6557 0.3744 -0.6557
vn 0.3548 0.3744 -0.8567
vn 0.0000 0.6952 -0.7189
vn -0.2751 0.6952 -0.6641
vn 0.0000 0.3744 -0.9273
vn 0.3827 0.0000 -0.9239
vn -0.3549 0.3744 -0.8567
vn 0.0000 -0.0000 -1.0000
vn 0.7071 0.0000 -0.7071
vn 0.6557 -0.3744 -0.6557
vn 0.3548 -0.3744 -0.8567
vn 0.5083 -0.6952 -0.5083
vn 0.2751 -0.6952 -0.6641
vn -0.0000 -0.3744 -0.9273
vn -0.3827 -0.0000 -0.9239
vn -0.3549 -0.3744 -0.8567
vn -0.0000 -0.6952 -0.7189
vn -0.7071 0.0000 -0.7071
vn -0.6557 0.3744 -0.6557
vn -0.8567 0.3744 -0.3549
vn -0.9239 0.0000 -0.3827
vn -0.6557 -0.3744 -0.6557
vn -0.6641 0.6952 -0.2751
vn -0.7189 0.6952 -0.0000
vn -0.9273 0.3744 -0.0000
vn -0.6641 0.6952 0.2751
vn -0.5083 0.6952 0.5083
vn -0.8567 0.3744 0.3549
vn -1.0000 -0.0000 -0.0000
vn -0.6557 0.3744 0.6557
vn -0.9239 -0.0000 0.3827
vn -0.9273 -0.3744 0.0000
vn -0.7071 -0.0000 0.7071
vn -0.8567 -0.3744 0.3549
vn -0.7189 -0.6952 0.0000
vn -0.6557 -0.3744 0.6557
vn -0.6641 -0.6952 0.2751
vn -0.4031 -0.9151 -0.0000
vn -0.5083 -0.6952 0.5083
vn -0.3724 -0.9151 0.1543
vn 0.0000 -1.0000 -0.0000
vn -0.2850 -0.9151 0.2851
vn -0.3724 -0.9151 -0.1543
vn -0.2851 -0.9151 -0.2850
vn -0.1543 -0.9151 -0.3724
vn 0.3724 -0.9151 0.1543
vn 0.2850 -0.9151 0.2850
vn 0.1543 -0.9151 0.3724
vn 0.4031 -0.9151 -0.0000
vn 0.3724 -0.9152 -0.1543
vn 0.2851 -0.9151 -0.2850
vn -0.1543 -0.9151 0.3724
vn 0.1543 -0.9151 -0.3724
vn 0.0000 -0.9151 -0.4031
vn -0.0000 -0.9151 0.4031
vn -0.5083 -0.6952 -0.5083
vn -0.2751 -0.6952 -0.6641
vn -0.8567 -0.3744 -0.3549
vn -0.6641 -0.6952 -0.2751
vn 0.5083 -0.6952 0.5083
vn 0.2751 -0.6952 0.6641
vn 0.6557 -0.3744 0.6557
vn 0.3549 -0.3744 0.8567
vn 0.0000 -0.6952 0.7189
vn 0.7071 0.0000 0.7071
vn 0.3827 -0.0000 0.9239
vn 0.0000 -0.3744 0.9273
vn 0.6557 0.3744 0.6557
vn 0.3549 0.3744 0.8567
vn 0.0000 0.0000 1.0000
vn 0.5083 0.6952 0.5083
vn 0.2751 0.6952 0.6641
vn -0.0000 0.3744 0.9273
vn -0.0000 0.6952 0.7189
vn -0.2751 0.6952 0.6641
vn -0.3549 0.3744 0.8567
vn -0.3827 0.0000 0.9239
vn -0.3549 -0.3744 0.8567
vn -0.2751 -0.6952 0.6641
vn 0.6641 0.6952 0.2751
vn 0.7188 0.6952 -0.0000
vn 0.8567 0.3744 0.3549
vn 0.9273 0.3744 -0.0000
vn 0.9239 -0.0000 0.3827
vn 1.0000 -0.0000 0.0000
vn 0.8567 -0.3744 0.3549
vn 0.9273 -0.3744 0.0000
vn 0.6641 -0.6952 0.2751
vn 0.7189 -0.6952 -0.0000
vn 0.8567 -0.3744 -0.3549
vn 0.6641 -0.6952 -0.2751
vn 0.9239 0.0000 -0.3827
vn 0.8567 0.3744 -0.3548
vn 0.6641 0.6952 -0.2751
vn -0.5083 0.6952 -0.5083
usemtl (null)
s 1
f 1/1/1 2/2/2 3/3/3
f 1/1/1 3/3/3 4/4/4
f 1/1/1 4/4/4 5/5/5
f 1/1/1 5/5/5 6/6/6
f 1/1/1 6/6/6 7/7/7
f 1/1/1 7/7/7 8/8/8
f 1/1/1 8/8/8 9/9/9
f 1/1/1 9/9/9 10/10/10
f 1/1/1 10/10/10 11/11/11
f 1/1/1 11/11/11 12/12/12
f 1/1/1 12/12/12 13/13/13
f 1/1/1 13/13/13 14/14/14
f 1/1/1 14/14/14 15/15/15
f 1/1/1 15/15/15 16/16/16
f 1/1/1 16/16/16 17/17/17
f 1/1/1 17/17/17 2/2/2
f 2/18/2 17/19/17 18/20/18
f 18/20/18 19/21/19 2/18/2
f 3/22/3 2/18/2 19/21/19
f 19/21/19 18/20/18 20/23/20
f 20/23/20 21/24/21 19/21/19
f 22/25/22 19/21/19 21/24/21
f 19/21/19 22/25/22 3/22/3
f 4/26/4 3/27/3 22/28/22
f 23/29/23 22/28/22 24/30/24
f 22/28/22 23/29/23 4/26/4
f 21/24/21 24/31/24 22/25/22
f 24/31/24 21/24/21 25/32/25
f 26/33/26 24/30/24 27/34/27
f 24/30/24 26/33/26 23/29/23
f 25/32/25 27/35/27 24/31/24
f 25/32/25 28/36/28 29/37/29
f 28/36/28 25/32/25 21/24/21
f 29/37/29 30/38/30 25/32/25
f 27/35/27 25/32/25 30/38/30
f 30/38/30 29/37/29 31/39/31
f 31/39/31 32/40/32 30/38/30
f 33/41/33 30/38/30 32/40/32
f 30/38/30 33/41/33 27/35/27
f 34/42/34 27/34/27 33/43/33
f 35/44/35 33/43/33 36/45/36
f 33/43/33 35/44/35 34/42/34
f 32/40/32 36/46/36 33/41/33
f 34/42/34 37/47/37 38/48/38
f 38/48/38 26/33/26 34/42/34
f 27/34/27 34/42/34 26/33/26
f 37/47/37 34/42/34 35/44/35
f 39/49/39 38/48/38 37/47/37
f 40/50/40 37/47/37 41/51/41
f 37/47/37 40/50/40 39/49/39
f 35/44/35 41/51/41 37/47/37
f 38/48/38 39/49/39 42/52/42
f 43/53/43 42/52/42 39/49/39
f 44/54/44 39/49/39 40/50/40
f 39/49/39 44/54/44 43/53/43
f 42/52/42 43/53/43 7/55/7
f 8/56/8 7/55/7 43/53/43
f 45/57/45 43/53/43 44/54/44
f 43/53/43 45/57/45 8/56/8
f 9/58/9 8/56/8 45/57/45
f 46/59/46 45/57/45 47/60/47
f 45/57/45 46/59/46 9/58/9
f 44/54/44 47/60/47 45/57/45
f 47/60/47 44/54/44 48/61/48
f 49/62/49 47/60/47 50/63/50
f 47/60/47 49/62/49 46/59/46
f 48/61/48 50/63/50 47/60/47
f 50/63/50 48/61/48 51/64/51
f 52/65/52 50/63/50 53/66/53
f 50/63/50 52/65/52 49/62/49
f 51/64/51 53/66/53 50/63/50
f 53/66/53 51/64/51 54/67/54
f 55/68/55 53/66/53 56/69/56
f 53/66/53 55/68/55 52/65/52
f 54/67/54 56/69/56 53/66/53
f 56/69/56 54/67/54 57/70/57
f 58/71/58 56/69/56 59/72/59
f 56/69/56 58/71/58 55/68/55
f 57/70/57 59/72/59 56/69/56
f 60/73/60 59/74/59 57/75/57
f 60/73/60 61/76/61 59/74/59
f 59/72/59 61/77/61 58/71/58
f 60/73/60 62/78/62 63/79/63
f 60/73/60 63/79/63 64/80/64
f 60/73/60 65/81/65 66/82/66
f 60/73/60 66/82/66 67/83/67
f 60/73/60 57/75/57 62/78/62
f 60/73/60 68/84/68 65/81/65
f 60/73/60 69/85/69 68/84/68
f 60/73/60 70/86/70 69/85/69
f 60/73/60 71/87/71 61/76/61
f 60/73/60 72/88/72 70/86/70
f 60/73/60 73/89/73 72/88/72
f 60/73/60 74/90/74 71/87/71
f 60/73/60 67/83/67 74/90/74
f 60/73/60 64/80/64 73/89/73
f 64/91/64 63/92/63 75/93/75
f 75/93/75 76/94/76 64/91/64
f 73/95/73 64/91/64 76/94/76
f 76/94/76 75/93/75 41/51/41
f 41/51/41 35/44/35 76/94/76
f 76/94/76 36/45/36 73/95/73
f 36/45/36 76/94/76 35/44/35
f 77/96/77 41/51/41 75/93/75
f 78/97/78 75/93/75 63/92/63
f 75/93/75 78/97/78 77/96/77
f 41/51/41 77/96/77 40/50/40
f 48/61/48 40/50/40 77/96/77
f 51/64/51 77/96/77 78/97/78
f 77/96/77 51/64/51 48/61/48
f 54/67/54 78/97/78 62/98/62
f 78/97/78 54/67/54 51/64/51
f 63/92/63 62/98/62 78/97/78
f 67/99/67 66/100/66 79/101/79
f 79/101/79 80/102/80 67/99/67
f 74/103/74 67/99/67 80/102/80
f 80/102/80 79/101/79 81/104/81
f 81/104/81 82/105/82 80/102/80
f 80/102/80 83/106/83 74/103/74
f 83/106/83 80/102/80 82/105/82
f 82/105/82 81/104/81 84/107/84
f 84/107/84 85/108/85 82/105/82
f 82/105/82 86/109/86 83/106/83
f 86/109/86 82/105/82 85/108/85
f 85/108/85 84/107/84 87/110/87
f 87/110/87 88/111/88 85/108/85
f 85/108/85 89/112/89 86/109/86
f 89/112/89 85/108/85 88/111/88
f 88/111/88 87/110/87 90/113/90
f 90/113/90 91/114/91 88/111/88
f 88/111/88 92/115/92 89/112/89
f 92/115/92 88/111/88 91/114/91
f 91/114/91 90/113/90 13/116/13
f 13/116/13 12/117/12 91/114/91
f 91/114/91 93/118/93 92/115/92
f 93/118/93 91/114/91 12/117/12
f 93/118/93 94/119/94 95/120/95
f 94/119/94 93/118/93 11/121/11
f 12/117/12 11/121/11 93/118/93
f 95/120/95 92/115/92 93/118/93
f 95/120/95 49/62/49 52/65/52
f 49/62/49 95/120/95 94/119/94
f 92/115/92 95/120/95 96/122/96
f 52/65/52 96/122/96 95/120/95
f 96/122/96 52/65/52 55/68/55
f 89/112/89 96/122/96 97/123/97
f 96/122/96 89/112/89 92/115/92
f 55/68/55 97/123/97 96/122/96
f 97/123/97 55/68/55 58/71/58
f 58/71/58 98/124/98 97/123/97
f 86/109/86 97/123/97 98/124/98
f 97/123/97 86/109/86 89/112/89
f 98/124/98 58/71/58 61/77/61
f 83/106/83 98/124/98 71/125/71
f 98/124/98 83/106/83 86/109/86
f 61/77/61 71/125/71 98/124/98
f 94/119/94 46/59/46 49/62/49
f 46/59/46 94/119/94 10/126/10
f 11/121/11 10/126/10 94/119/94
f 14/127/14 13/116/13 90/113/90
f 99/128/99 90/113/90 87/110/87
f 90/113/90 99/128/99 14/127/14
f 15/129/15 14/127/14 99/128/99
f 100/130/100 99/128/99 101/131/101
f 99/128/99 100/130/100 15/129/15
f 87/110/87 101/131/101 99/128/99
f 101/131/101 87/110/87 84/107/84
f 102/132/102 101/131/101 103/133/103
f 101/131/101 102/132/102 100/130/100
f 84/107/84 103/133/103 101/131/101
f 103/133/103 84/107/84 81/104/81
f 104/134/104 103/133/103 105/135/105
f 103/133/103 104/134/104 102/132/102
f 81/104/81 105/135/105 103/133/103
f 105/135/105 81/104/81 79/101/79
f 106/136/106 105/135/105 107/137/107
f 105/135/105 106/136/106 104/134/104
f 79/101/79 107/137/107 105/135/105
f 107/137/107 79/101/79 66/100/66
f 108/138/108 107/137/107 65/139/65
f 107/137/107 108/138/108 106/136/106
f 66/100/66 65/139/65 107/137/107
f 109/140/109 106/136/106 108/138/108
f 110/141/110 108/138/108 68/142/68
f 108/138/108 110/141/110 109/140/109
f 65/139/65 68/142/68 108/138/108
f 106/136/106 109/140/109 111/143/111
f 28/36/28 111/143/111 109/140/109
f 29/37/29 109/140/109 110/141/110
f 109/140/109 29/37/29 28/36/28
f 111/143/111 104/134/104 106/136/106
f 104/134/104 111/143/111 112/144/112
f 20/23/20 112/144/112 111/143/111
f 111/143/111 28/36/28 20/23/20
f 112/144/112 102/132/102 104/134/104
f 102/132/102 112/144/112 113/145/113
f 18/20/18 113/145/113 112/144/112
f 112/144/112 20/23/20 18/20/18
f 113/145/113 100/130/100 102/132/102
f 100/130/100 113/145/113 16/146/16
f 17/19/17 16/146/16 113/145/113
f 113/145/113 18/20/18 17/19/17
f 31/39/31 110/141/110 69/147/69
f 110/141/110 31/39/31 29/37/29
f 68/142/68 69/147/69 110/141/110
f 16/146/16 15/129/15 100/130/100
f 71/125/71 74/103/74 83/106/83
f 72/148/72 73/149/73 36/46/36
f 70/150/70 72/148/72 32/40/32
f 36/46/36 32/40/32 72/148/72
f 69/147/69 70/150/70 31/39/31
f 32/40/32 31/39/31 70/150/70
f 62/98/62 57/70/57 54/67/54
f 40/50/40 48/61/48 44/54/44
f 10/126/10 9/58/9 46/59/46
f 42/52/42 114/151/114 38/48/38
f 114/151/114 42/52/42 6/152/6
f 7/55/7 6/152/6 42/52/42
f 6/152/6 5/153/5 114/151/114
f 23/29/23 114/151/114 5/153/5
f 26/33/26 38/48/38 114/151/114
f 114/151/114 23/29/23 26/33/26
f 21/24/21 20/23/20 28/36/28
f 5/153/5 4/26/4 23/29/23
