# Blender v3.0.0 OBJ File: ''
# www.blender.org
mtllib bola13.mtl
o POOL_TABLE.035
v -0.561699 1.038675 -0.011284
v -0.572892 1.036449 -0.011284
v -0.572040 1.036449 -0.007000
v -0.572040 1.036449 -0.015567
v -0.565982 1.036449 -0.000942
v -0.561699 1.036449 -0.000090
v -0.569614 1.036449 -0.003368
v -0.557415 1.036449 -0.000942
v -0.553783 1.036449 -0.003368
v -0.551357 1.036449 -0.007000
v -0.550505 1.036449 -0.011284
v -0.551357 1.036449 -0.015567
v -0.553783 1.036449 -0.019199
v -0.557415 1.036449 -0.021625
v -0.561699 1.036449 -0.022477
v -0.565982 1.036449 -0.021625
v -0.569614 1.036449 -0.019199
v -0.580808 1.030108 -0.003368
v -0.576324 1.030108 0.003342
v -0.586666 1.020618 -0.000942
v -0.569614 1.030108 0.007825
v -0.580808 1.020618 0.007825
v -0.588723 1.009425 -0.000090
v -0.572040 1.020618 0.013683
v -0.582382 1.009425 0.009400
v -0.586666 0.998231 -0.000942
v -0.580808 0.998231 0.007825
v -0.572892 1.009425 0.015740
v -0.561699 1.009425 0.017967
v -0.561699 1.020618 0.015740
v -0.572040 0.998231 0.013683
v -0.561699 0.998231 0.015740
v -0.576324 0.988741 0.003342
v -0.569614 0.988741 0.007825
v -0.561699 0.988741 0.009400
v -0.569614 0.982401 -0.003368
v -0.565982 0.982401 -0.000942
v -0.561699 0.980174 -0.011284
v -0.572040 0.982401 -0.007000
v -0.561699 0.982401 -0.022477
v -0.557415 0.982401 -0.021625
v -0.565982 0.982401 -0.021625
v -0.557415 0.982401 -0.000942
v -0.561699 0.982401 -0.000090
v -0.569614 0.982401 -0.019199
v -0.553783 0.982401 -0.003368
v -0.572040 0.982401 -0.015567
v -0.551357 0.982401 -0.007000
v -0.550505 0.982401 -0.011284
v -0.572892 0.982401 -0.011284
v -0.551357 0.982401 -0.015567
v -0.553783 0.982401 -0.019199
v -0.561699 0.988741 -0.031967
v -0.553783 0.988741 -0.030393
v -0.561699 0.998231 -0.038308
v -0.551357 0.998231 -0.036251
v -0.547073 0.988741 -0.025909
v -0.561699 1.009425 -0.040534
v -0.550505 1.009425 -0.038308
v -0.542590 0.998231 -0.030393
v -0.561699 1.020618 -0.038308
v -0.551357 1.020618 -0.036251
v -0.541015 1.009425 -0.031967
v -0.561699 1.030108 -0.031967
v -0.553783 1.030108 -0.030393
v -0.542590 1.020618 -0.030393
v -0.547073 1.030108 -0.025909
v -0.542590 1.030108 -0.019199
v -0.536732 1.020618 -0.021625
v -0.534675 1.020618 -0.011284
v -0.532448 1.009425 -0.011284
v -0.534675 1.009425 -0.022477
v -0.534675 0.998231 -0.011284
v -0.536732 0.998231 -0.021625
v -0.541015 0.988741 -0.011284
v -0.542590 0.988741 -0.019199
v -0.542590 0.988741 -0.003368
v -0.547073 0.988741 0.003342
v -0.536732 0.998231 -0.000942
v -0.542590 0.998231 0.007825
v -0.534675 1.009425 -0.000090
v -0.541015 1.009425 0.009400
v -0.536732 1.020618 -0.000942
v -0.542590 1.020618 0.007825
v -0.542590 1.030108 -0.003368
v -0.541015 1.030108 -0.011284
v -0.547073 1.030108 0.003342
v -0.553783 1.030108 0.007825
v -0.551357 1.020618 0.013683
v -0.550505 1.009425 0.015740
v -0.551357 0.998231 0.013683
v -0.553783 0.988741 0.007825
v -0.561699 1.030108 0.009400
v -0.569614 1.030108 -0.030393
v -0.576324 1.030108 -0.025909
v -0.572040 1.020618 -0.036251
v -0.580808 1.020618 -0.030393
v -0.572892 1.009425 -0.038308
v -0.582382 1.009425 -0.031967
v -0.572040 0.998231 -0.036251
v -0.580808 0.998231 -0.030393
v -0.569614 0.988741 -0.030393
v -0.576324 0.988741 -0.025909
v -0.580808 0.988741 -0.019199
v -0.586666 0.998231 -0.021625
v -0.588723 1.009425 -0.022477
v -0.590949 1.009425 -0.011284
v -0.588723 0.998231 -0.011284
v -0.588723 1.020618 -0.011284
v -0.586666 1.020618 -0.021625
v -0.582382 1.030108 -0.011284
v -0.580808 1.030108 -0.019199
v -0.582382 0.988741 -0.011284
v -0.580808 0.988741 -0.003368
vt 0.368014 0.959684
vt 0.369689 0.968100
vt 0.366339 0.968100
vt 0.372782 0.966820
vt 0.360878 0.964452
vt 0.359596 0.961357
vt 0.363246 0.966820
vt 0.359596 0.958009
vt 0.360878 0.954916
vt 0.363246 0.952547
vt 0.366339 0.951266
vt 0.369687 0.951266
vt 0.372782 0.952548
vt 0.375150 0.954916
vt 0.376431 0.958009
vt 0.376431 0.961357
vt 0.375150 0.964452
vt 0.170962 0.830583
vt 0.170962 0.825224
vt 0.176570 0.825224
vt 0.176570 0.830583
vt 0.170962 0.835942
vt 0.182178 0.825224
vt 0.176570 0.835942
vt 0.182178 0.830583
vt 0.187785 0.825224
vt 0.182178 0.835942
vt 0.187785 0.830583
vt 0.193395 0.825224
vt 0.193395 0.830583
vt 0.187785 0.835942
vt 0.187785 0.841302
vt 0.182178 0.841302
vt 0.193394 0.835942
vt 0.193394 0.841302
vt 0.199002 0.830583
vt 0.199002 0.835942
vt 0.199002 0.841302
vt 0.204610 0.830583
vt 0.204610 0.835942
vt 0.887173 0.927780
vt 0.885499 0.936197
vt 0.882405 0.934916
vt 0.204610 0.825224
vt 0.888847 0.936197
vt 0.882405 0.920644
vt 0.885499 0.919363
vt 0.880037 0.923012
vt 0.894309 0.932548
vt 0.891941 0.934916
vt 0.878756 0.926106
vt 0.895590 0.929454
vt 0.878756 0.929454
vt 0.895590 0.926106
vt 0.894309 0.923012
vt 0.880037 0.932548
vt 0.891941 0.920644
vt 0.888847 0.919363
vt 0.204610 0.878816
vt 0.204609 0.884175
vt 0.199001 0.884175
vt 0.199002 0.878816
vt 0.204610 0.873456
vt 0.193394 0.884175
vt 0.193394 0.878816
vt 0.199002 0.873456
vt 0.187785 0.884175
vt 0.187785 0.878816
vt 0.193394 0.873456
vt 0.182178 0.884175
vt 0.182178 0.878816
vt 0.187785 0.873456
vt 0.176570 0.884175
vt 0.176570 0.878816
vt 0.182178 0.873456
vt 0.170962 0.884175
vt 0.170962 0.878816
vt 0.176570 0.873456
vt 0.176570 0.868097
vt 0.182178 0.868097
vt 0.170962 0.873456
vt 0.182178 0.862738
vt 0.187785 0.862738
vt 0.187785 0.868097
vt 0.193394 0.862738
vt 0.193394 0.868097
vt 0.199002 0.862738
vt 0.199002 0.868097
vt 0.204610 0.862738
vt 0.204610 0.868097
vt 0.199002 0.857380
vt 0.204610 0.857380
vt 0.199002 0.852020
vt 0.204610 0.852020
vt 0.193394 0.857380
vt 0.193394 0.852020
vt 0.187785 0.857380
vt 0.187785 0.852020
vt 0.182178 0.857380
vt 0.182178 0.852020
vt 0.176570 0.857380
vt 0.176570 0.862738
vt 0.170962 0.862738
vt 0.170962 0.868097
vt 0.176570 0.852020
vt 0.170962 0.857380
vt 0.176570 0.846661
vt 0.182178 0.846661
vt 0.170962 0.852020
vt 0.187785 0.846661
vt 0.193394 0.846661
vt 0.199002 0.846661
vt 0.204610 0.841302
vt 0.204610 0.846661
vt 0.176570 0.841302
vt 0.170962 0.846661
vt 0.170962 0.841302
vt 0.176570 0.803787
vt 0.176570 0.798429
vt 0.182179 0.798429
vt 0.170962 0.803787
vt 0.170962 0.798429
vt 0.170962 0.809146
vt 0.176570 0.809146
vt 0.182179 0.803787
vt 0.187787 0.798429
vt 0.182179 0.809146
vt 0.187787 0.803787
vt 0.193395 0.798429
vt 0.187787 0.809146
vt 0.193395 0.803787
vt 0.199002 0.798429
vt 0.193395 0.809146
vt 0.199002 0.803787
vt 0.204610 0.798429
vt 0.199002 0.809146
vt 0.204610 0.803787
vt 0.204610 0.809146
vt 0.199002 0.814505
vt 0.193395 0.814505
vt 0.187785 0.814505
vt 0.187785 0.819864
vt 0.193395 0.819864
vt 0.182178 0.819864
vt 0.182179 0.814505
vt 0.176570 0.819864
vt 0.176570 0.814505
vt 0.170962 0.819864
vt 0.170962 0.814505
vt 0.199002 0.819864
vt 0.204610 0.814505
vt 0.204610 0.819864
vt 0.199002 0.825224
vn -0.0000 1.0000 -0.0000
vn -0.4031 0.9152 0.0000
vn -0.3724 0.9152 0.1542
vn -0.3724 0.9152 -0.1542
vn -0.1542 0.9152 0.3724
vn -0.0000 0.9152 0.4031
vn -0.2850 0.9152 0.2850
vn 0.1542 0.9152 0.3724
vn 0.2850 0.9152 0.2850
vn 0.3724 0.9152 0.1542
vn 0.4031 0.9152 -0.0000
vn 0.3724 0.9152 -0.1542
vn 0.2850 0.9152 -0.2850
vn 0.1542 0.9152 -0.3724
vn -0.0000 0.9152 -0.4031
vn -0.1542 0.9152 -0.3724
vn -0.2850 0.9152 -0.2850
vn -0.6641 0.6951 0.2751
vn -0.5083 0.6951 0.5084
vn -0.8567 0.3744 0.3548
vn -0.2751 0.6951 0.6641
vn -0.6557 0.3744 0.6557
vn -0.9239 0.0000 0.3827
vn -0.3548 0.3744 0.8567
vn -0.7071 0.0000 0.7071
vn -0.8567 -0.3744 0.3548
vn -0.6557 -0.3743 0.6557
vn -0.3827 0.0000 0.9239
vn -0.0000 0.0000 1.0000
vn -0.0000 0.3744 0.9273
vn -0.3548 -0.3743 0.8567
vn -0.0000 -0.3743 0.9273
vn -0.5083 -0.6952 0.5083
vn -0.2751 -0.6952 0.6641
vn -0.0000 -0.6952 0.7189
vn -0.2850 -0.9152 0.2850
vn -0.1542 -0.9152 0.3724
vn -0.0000 -1.0000 -0.0000
vn -0.3724 -0.9152 0.1542
vn -0.0000 -0.9152 -0.4031
vn 0.1542 -0.9152 -0.3724
vn -0.1542 -0.9152 -0.3724
vn 0.1542 -0.9152 0.3724
vn -0.0000 -0.9152 0.4031
vn -0.2850 -0.9152 -0.2850
vn 0.2850 -0.9152 0.2850
vn -0.3724 -0.9152 -0.1542
vn 0.3724 -0.9152 0.1542
vn 0.4031 -0.9152 -0.0000
vn -0.4031 -0.9152 -0.0000
vn 0.3724 -0.9152 -0.1542
vn 0.2850 -0.9152 -0.2850
vn -0.0000 -0.6952 -0.7188
vn 0.2751 -0.6952 -0.6641
vn -0.0000 -0.3743 -0.9273
vn 0.3549 -0.3743 -0.8567
vn 0.5083 -0.6952 -0.5083
vn -0.0000 0.0000 -1.0000
vn 0.3827 0.0000 -0.9239
vn 0.6557 -0.3744 -0.6557
vn -0.0000 0.3744 -0.9273
vn 0.3548 0.3744 -0.8567
vn 0.7071 0.0000 -0.7071
vn -0.0000 0.6952 -0.7189
vn 0.2751 0.6952 -0.6641
vn 0.6557 0.3744 -0.6557
vn 0.5083 0.6951 -0.5083
vn 0.6642 0.6951 -0.2751
vn 0.8567 0.3744 -0.3548
vn 0.9273 0.3744 -0.0000
vn 1.0000 0.0000 -0.0000
vn 0.9239 0.0000 -0.3827
vn 0.9273 -0.3744 -0.0000
vn 0.8567 -0.3743 -0.3548
vn 0.7189 -0.6952 -0.0000
vn 0.6641 -0.6952 -0.2751
vn 0.6641 -0.6952 0.2751
vn 0.5083 -0.6951 0.5083
vn 0.8567 -0.3743 0.3549
vn 0.6557 -0.3744 0.6557
vn 0.9239 0.0000 0.3827
vn 0.7071 0.0000 0.7071
vn 0.8567 0.3744 0.3548
vn 0.6557 0.3744 0.6557
vn 0.6642 0.6951 0.2751
vn 0.7189 0.6951 -0.0000
vn 0.5083 0.6951 0.5083
vn 0.2751 0.6951 0.6642
vn 0.3549 0.3743 0.8567
vn 0.3827 0.0000 0.9239
vn 0.3548 -0.3743 0.8567
vn 0.2751 -0.6952 0.6641
vn -0.0000 0.6951 0.7189
vn -0.2751 0.6951 -0.6641
vn -0.5083 0.6952 -0.5083
vn -0.3548 0.3744 -0.8567
vn -0.6557 0.3744 -0.6557
vn -0.3827 0.0000 -0.9239
vn -0.7071 0.0000 -0.7071
vn -0.3548 -0.3743 -0.8567
vn -0.6557 -0.3743 -0.6557
vn -0.2751 -0.6952 -0.6641
vn -0.5083 -0.6952 -0.5083
vn -0.6641 -0.6952 -0.2751
vn -0.8567 -0.3743 -0.3548
vn -0.9239 0.0000 -0.3827
vn -1.0000 0.0000 -0.0000
vn -0.9273 -0.3743 -0.0000
vn -0.9273 0.3743 -0.0000
vn -0.8567 0.3744 -0.3548
vn -0.7189 0.6952 -0.0000
vn -0.6641 0.6952 -0.2751
vn -0.7188 -0.6952 -0.0000
vn -0.6641 -0.6952 0.2751
usemtl (null)
s 1
f 1/1/1 2/2/2 3/3/3
f 1/1/1 4/4/4 2/2/2
f 1/1/1 5/5/5 6/6/6
f 1/1/1 7/7/7 5/5/5
f 1/1/1 8/8/8 9/9/9
f 1/1/1 6/6/6 8/8/8
f 1/1/1 9/9/9 10/10/10
f 1/1/1 10/10/10 11/11/11
f 1/1/1 11/11/11 12/12/12
f 1/1/1 12/12/12 13/13/13
f 1/1/1 13/13/13 14/14/14
f 1/1/1 14/14/14 15/15/15
f 1/1/1 15/15/15 16/16/16
f 1/1/1 16/16/16 17/17/17
f 1/1/1 17/17/17 4/4/4
f 1/1/1 3/3/3 7/7/7
f 7/18/7 3/19/3 18/20/18
f 18/20/18 19/21/19 7/18/7
f 5/22/5 7/18/7 19/21/19
f 19/21/19 18/20/18 20/23/20
f 21/24/21 19/21/19 22/25/22
f 19/21/19 21/24/21 5/22/5
f 20/23/20 22/25/22 19/21/19
f 22/25/22 20/23/20 23/26/23
f 24/27/24 22/25/22 25/28/25
f 22/25/22 24/27/24 21/24/21
f 23/26/23 25/28/25 22/25/22
f 25/28/25 23/26/23 26/29/26
f 26/29/26 27/30/27 25/28/25
f 28/31/28 25/28/25 27/30/27
f 25/28/25 28/31/28 24/27/24
f 28/31/28 29/32/29 30/33/30
f 30/33/30 24/27/24 28/31/28
f 29/32/29 28/31/28 31/34/31
f 27/30/27 31/34/31 28/31/28
f 31/34/31 32/35/32 29/32/29
f 31/34/31 27/30/27 33/36/33
f 33/36/33 34/37/34 31/34/31
f 32/35/32 31/34/31 34/37/34
f 34/37/34 35/38/35 32/35/32
f 34/37/34 33/36/33 36/39/36
f 35/38/35 34/37/34 37/40/37
f 36/39/36 37/40/37 34/37/34
f 38/41/38 36/42/36 39/43/39
f 39/44/39 36/39/36 33/36/33
f 38/41/38 37/45/37 36/42/36
f 38/41/38 40/46/40 41/47/41
f 38/41/38 42/48/42 40/46/40
f 38/41/38 43/49/43 44/50/44
f 38/41/38 44/50/44 37/45/37
f 38/41/38 45/51/45 42/48/42
f 38/41/38 46/52/46 43/49/43
f 38/41/38 47/53/47 45/51/45
f 38/41/38 48/54/48 46/52/46
f 38/41/38 49/55/49 48/54/48
f 38/41/38 50/56/50 47/53/47
f 38/41/38 39/43/39 50/56/50
f 38/41/38 51/57/51 49/55/49
f 38/41/38 52/58/52 51/57/51
f 38/41/38 41/47/41 52/58/52
f 41/59/41 40/60/40 53/61/53
f 53/61/53 54/62/54 41/59/41
f 52/63/52 41/59/41 54/62/54
f 54/62/54 53/61/53 55/64/55
f 55/64/55 56/65/56 54/62/54
f 54/62/54 57/66/57 52/63/52
f 57/66/57 54/62/54 56/65/56
f 56/65/56 55/64/55 58/67/58
f 58/67/58 59/68/59 56/65/56
f 56/65/56 60/69/60 57/66/57
f 60/69/60 56/65/56 59/68/59
f 59/68/59 58/67/58 61/70/61
f 61/70/61 62/71/62 59/68/59
f 59/68/59 63/72/63 60/69/60
f 63/72/63 59/68/59 62/71/62
f 62/71/62 61/70/61 64/73/64
f 64/73/64 65/74/65 62/71/62
f 62/71/62 66/75/66 63/72/63
f 66/75/66 62/71/62 65/74/65
f 65/74/65 64/73/64 15/76/15
f 15/76/15 14/77/14 65/74/65
f 65/74/65 67/78/67 66/75/66
f 67/78/67 65/74/65 14/77/14
f 67/78/67 68/79/68 69/80/69
f 68/79/68 67/78/67 13/81/13
f 69/80/69 66/75/66 67/78/67
f 14/77/14 13/81/13 67/78/67
f 69/80/69 70/82/70 71/83/71
f 70/82/70 69/80/69 68/79/68
f 66/75/66 69/80/69 72/84/72
f 71/83/71 72/84/72 69/80/69
f 72/84/72 71/83/71 73/85/73
f 63/72/63 72/84/72 74/86/74
f 72/84/72 63/72/63 66/75/66
f 73/85/73 74/86/74 72/84/72
f 74/86/74 73/85/73 75/87/75
f 75/87/75 76/88/76 74/86/74
f 60/69/60 74/86/74 76/88/76
f 74/86/74 60/69/60 63/72/63
f 76/88/76 75/87/75 49/89/49
f 49/89/49 51/90/51 76/88/76
f 57/66/57 76/88/76 51/90/51
f 76/88/76 57/66/57 60/69/60
f 75/87/75 77/91/77 48/92/48
f 77/91/77 75/87/75 73/85/73
f 48/92/48 49/89/49 75/87/75
f 77/91/77 78/93/78 46/94/46
f 78/93/78 77/91/77 79/95/79
f 73/85/73 79/95/79 77/91/77
f 46/94/46 48/92/48 77/91/77
f 79/95/79 80/96/80 78/93/78
f 80/96/80 79/95/79 81/97/81
f 71/83/71 81/97/81 79/95/79
f 79/95/79 73/85/73 71/83/71
f 81/97/81 82/98/82 80/96/80
f 82/98/82 81/97/81 83/99/83
f 70/82/70 83/99/83 81/97/81
f 81/97/81 71/83/71 70/82/70
f 83/99/83 84/100/84 82/98/82
f 84/100/84 83/99/83 85/101/85
f 86/102/86 85/101/85 83/99/83
f 83/99/83 70/82/70 86/102/86
f 85/101/85 86/102/86 11/103/11
f 12/104/12 11/103/11 86/102/86
f 68/79/68 86/102/86 70/82/70
f 86/102/86 68/79/68 12/104/12
f 85/101/85 87/105/87 84/100/84
f 87/105/87 85/101/85 10/106/10
f 11/103/11 10/106/10 85/101/85
f 87/105/87 88/107/88 89/108/89
f 88/107/88 87/105/87 9/109/9
f 89/108/89 84/100/84 87/105/87
f 10/106/10 9/109/9 87/105/87
f 89/108/89 30/33/30 29/32/29
f 30/33/30 89/108/89 88/107/88
f 84/100/84 89/108/89 90/110/90
f 29/32/29 90/110/90 89/108/89
f 90/110/90 29/32/29 32/35/32
f 82/98/82 90/110/90 91/111/91
f 90/110/90 82/98/82 84/100/84
f 32/35/32 91/111/91 90/110/90
f 91/111/91 32/35/32 35/38/35
f 35/38/35 92/112/92 91/111/91
f 80/96/80 91/111/91 92/112/92
f 91/111/91 80/96/80 82/98/82
f 92/112/92 35/38/35 44/113/44
f 78/93/78 92/112/92 43/114/43
f 92/112/92 78/93/78 80/96/80
f 44/113/44 43/114/43 92/112/92
f 88/107/88 93/115/93 30/33/30
f 93/115/93 88/107/88 8/116/8
f 9/109/9 8/116/8 88/107/88
f 8/116/8 6/117/6 93/115/93
f 21/24/21 93/115/93 6/117/6
f 24/27/24 30/33/30 93/115/93
f 93/115/93 21/24/21 24/27/24
f 43/114/43 46/94/46 78/93/78
f 13/81/13 12/104/12 68/79/68
f 94/118/94 64/119/64 61/120/61
f 64/119/64 94/118/94 16/121/16
f 16/121/16 15/122/15 64/119/64
f 17/123/17 16/121/16 94/118/94
f 95/124/95 94/118/94 96/125/96
f 94/118/94 95/124/95 17/123/17
f 61/120/61 96/125/96 94/118/94
f 96/125/96 61/120/61 58/126/58
f 97/127/97 96/125/96 98/128/98
f 96/125/96 97/127/97 95/124/95
f 58/126/58 98/128/98 96/125/96
f 98/128/98 58/126/58 55/129/55
f 99/130/99 98/128/98 100/131/100
f 98/128/98 99/130/99 97/127/97
f 55/129/55 100/131/100 98/128/98
f 100/131/100 55/129/55 53/132/53
f 101/133/101 100/131/100 102/134/102
f 100/131/100 101/133/101 99/130/99
f 53/132/53 102/134/102 100/131/100
f 102/134/102 53/132/53 40/135/40
f 103/136/103 102/134/102 42/137/42
f 102/134/102 103/136/103 101/133/101
f 40/135/40 42/137/42 102/134/102
f 42/137/42 45/138/45 103/136/103
f 104/139/104 103/136/103 45/138/45
f 105/140/105 101/133/101 103/136/103
f 103/136/103 104/139/104 105/140/105
f 101/133/101 105/140/105 106/141/106
f 107/142/107 106/141/106 105/140/105
f 108/143/108 105/140/105 104/139/104
f 105/140/105 108/143/108 107/142/107
f 106/141/106 107/142/107 109/144/109
f 23/26/23 107/142/107 108/143/108
f 20/23/20 109/144/109 107/142/107
f 107/142/107 23/26/23 20/23/20
f 109/144/109 110/145/110 106/141/106
f 110/145/110 109/144/109 111/146/111
f 109/144/109 20/23/20 18/20/18
f 18/20/18 111/146/111 109/144/109
f 111/146/111 112/147/112 110/145/110
f 112/147/112 111/146/111 2/148/2
f 3/19/3 2/148/2 111/146/111
f 111/146/111 18/20/18 3/19/3
f 112/147/112 95/124/95 97/127/97
f 95/124/95 112/147/112 4/149/4
f 2/148/2 4/149/4 112/147/112
f 97/127/97 110/145/110 112/147/112
f 110/145/110 97/127/97 99/130/99
f 99/130/99 106/141/106 110/145/110
f 26/29/26 108/143/108 113/150/113
f 108/143/108 26/29/26 23/26/23
f 104/139/104 113/150/113 108/143/108
f 113/150/113 104/139/104 47/151/47
f 47/151/47 50/152/50 113/150/113
f 114/153/114 113/150/113 50/152/50
f 113/150/113 114/153/114 26/29/26
f 27/30/27 26/29/26 114/153/114
f 50/152/50 39/44/39 114/153/114
f 33/36/33 114/153/114 39/44/39
f 114/153/114 33/36/33 27/30/27
f 106/141/106 99/130/99 101/133/101
f 45/138/45 47/151/47 104/139/104
f 4/149/4 17/123/17 95/124/95
f 51/90/51 52/63/52 57/66/57
f 37/40/37 44/113/44 35/38/35
f 6/117/6 5/22/5 21/24/21
