# Blender v3.0.0 OBJ File: ''
# www.blender.org
mtllib bolablanca.mtl
o POOL_TABLE.024
v 0.692721 1.038676 -0.008198
v 0.697005 1.036449 -0.018539
v 0.692721 1.036449 -0.019391
v 0.688437 1.036449 -0.018539
v 0.684806 1.036449 -0.016113
v 0.682379 1.036449 -0.012481
v 0.681527 1.036449 -0.008198
v 0.682379 1.036449 -0.003914
v 0.684806 1.036449 -0.000283
v 0.688437 1.036449 0.002144
v 0.692721 1.036449 0.002996
v 0.697005 1.036449 0.002144
v 0.700636 1.036449 -0.000283
v 0.703063 1.036449 -0.003914
v 0.703915 1.036449 -0.008198
v 0.703063 1.036449 -0.012481
v 0.700636 1.036449 -0.016113
v 0.707346 1.030108 -0.022823
v 0.700636 1.030108 -0.027307
v 0.711830 1.020619 -0.027307
v 0.703063 1.020619 -0.033165
v 0.692721 1.030108 -0.028881
v 0.684806 1.030108 -0.027307
v 0.692721 1.020619 -0.035222
v 0.703915 1.009425 -0.035222
v 0.682379 1.020619 -0.033165
v 0.692721 1.009425 -0.037448
v 0.713404 1.009425 -0.028881
v 0.711830 0.998231 -0.027307
v 0.703063 0.998231 -0.033165
v 0.707346 0.988742 -0.022823
v 0.700636 0.988742 -0.027307
v 0.692721 0.998231 -0.035222
v 0.681527 1.009425 -0.035222
v 0.682379 0.998231 -0.033165
v 0.692721 0.988742 -0.028881
v 0.673612 1.020619 -0.027307
v 0.672038 1.009425 -0.028881
v 0.678096 1.030108 -0.022823
v 0.673612 1.030108 -0.016113
v 0.667754 1.020619 -0.018539
v 0.672038 1.030108 -0.008198
v 0.673612 1.030108 -0.000283
v 0.665697 1.020619 -0.008198
v 0.665697 1.009425 -0.019391
v 0.667754 1.020619 0.002144
v 0.663470 1.009425 -0.008198
v 0.667754 0.998231 -0.018539
v 0.665697 1.009425 0.002996
v 0.665697 0.998231 -0.008198
v 0.673612 0.988742 -0.016113
v 0.667754 0.998231 0.002144
v 0.672038 0.988742 -0.008198
v 0.682379 0.982401 -0.012481
v 0.673612 0.988742 -0.000283
v 0.681527 0.982401 -0.008198
v 0.692721 0.980174 -0.008198
v 0.682379 0.982401 -0.003914
v 0.697005 0.982401 -0.018539
v 0.700636 0.982401 -0.016113
v 0.703063 0.982401 -0.012481
v 0.688437 0.982401 0.002144
v 0.684806 0.982401 -0.000283
v 0.692721 0.982401 -0.019391
v 0.692721 0.982401 0.002996
v 0.688437 0.982401 -0.018539
v 0.697005 0.982401 0.002144
v 0.684806 0.982401 -0.016113
v 0.700636 0.982401 -0.000283
v 0.703063 0.982401 -0.003914
v 0.703915 0.982401 -0.008198
v 0.711830 0.988742 -0.016113
v 0.717688 0.998231 -0.018539
v 0.713404 0.988742 -0.008198
v 0.719745 1.009425 -0.019392
v 0.719745 0.998231 -0.008198
v 0.717688 1.020619 -0.018539
v 0.721972 1.009425 -0.008198
v 0.711830 1.030108 -0.016113
v 0.719745 1.020619 -0.008198
v 0.713404 1.030108 -0.008198
v 0.711830 1.030108 -0.000283
v 0.717688 1.020619 0.002144
v 0.711830 1.020619 0.010911
v 0.713404 1.009425 0.012486
v 0.719745 1.009425 0.002996
v 0.711830 0.998231 0.010911
v 0.717688 0.998231 0.002144
v 0.707346 0.988742 0.006428
v 0.711830 0.988742 -0.000283
v 0.700636 0.988742 0.010911
v 0.692721 0.988742 0.012486
v 0.703063 0.998231 0.016769
v 0.692721 0.998231 0.018826
v 0.703915 1.009425 0.018826
v 0.692721 1.009425 0.021053
v 0.703063 1.020619 0.016769
v 0.692721 1.020619 0.018826
v 0.700636 1.030108 0.010911
v 0.707346 1.030108 0.006428
v 0.692721 1.030108 0.012486
v 0.684806 1.030108 0.010911
v 0.682379 1.020619 0.016769
v 0.673612 1.020619 0.010911
v 0.672038 1.009425 0.012486
v 0.681527 1.009425 0.018826
v 0.673612 0.998231 0.010911
v 0.682379 0.998231 0.016769
v 0.678096 0.988742 0.006428
v 0.684806 0.988742 0.010911
v 0.678096 1.030108 0.006428
v 0.678096 0.988742 -0.022823
v 0.684806 0.988742 -0.027307
v 0.673612 0.998231 -0.027307
vt 0.283903 0.972252
vt 0.288671 0.979388
vt 0.285578 0.980668
vt 0.282229 0.980668
vt 0.279135 0.979388
vt 0.276767 0.977020
vt 0.275487 0.973926
vt 0.275487 0.970577
vt 0.276767 0.967484
vt 0.279135 0.965116
vt 0.282229 0.963835
vt 0.285578 0.963835
vt 0.288671 0.965116
vt 0.291039 0.967484
vt 0.292320 0.970577
vt 0.292320 0.973926
vt 0.291039 0.977020
vt 0.277875 0.889871
vt 0.281665 0.886081
vt 0.285630 0.890047
vt 0.281841 0.893836
vt 0.274086 0.893660
vt 0.289596 0.894012
vt 0.285806 0.897802
vt 0.278051 0.897626
vt 0.330929 0.836818
vt 0.334718 0.833028
vt 0.338684 0.836993
vt 0.334894 0.840783
vt 0.342649 0.840958
vt 0.282016 0.901591
vt 0.289771 0.901767
vt 0.338859 0.844748
vt 0.346614 0.844924
vt 0.285982 0.905556
vt 0.293561 0.897977
vt 0.297526 0.901943
vt 0.293737 0.905732
vt 0.301492 0.905908
vt 0.297702 0.909698
vt 0.289947 0.909522
vt 0.342825 0.848713
vt 0.350580 0.848889
vt 0.346790 0.852679
vt 0.354545 0.852855
vt 0.293913 0.913487
vt 0.335070 0.848538
vt 0.339035 0.852503
vt 0.331105 0.844572
vt 0.327315 0.848362
vt 0.331280 0.852327
vt 0.323350 0.844397
vt 0.319560 0.848186
vt 0.323525 0.852152
vt 0.315771 0.851976
vt 0.319736 0.855941
vt 0.327491 0.856117
vt 0.335246 0.856293
vt 0.323701 0.859906
vt 0.331456 0.860082
vt 0.339211 0.860258
vt 0.327667 0.863872
vt 0.335421 0.864048
vt 0.343176 0.864223
vt 0.331632 0.867837
vt 0.339387 0.868013
vt 0.347142 0.868189
vt 0.335597 0.871803
vt 0.343352 0.871978
vt 0.231698 0.965485
vt 0.233373 0.957067
vt 0.236466 0.958349
vt 0.230023 0.957067
vt 0.339563 0.875768
vt 0.238834 0.970253
vt 0.236466 0.972620
vt 0.233373 0.973901
vt 0.224562 0.960717
vt 0.226930 0.958349
vt 0.240116 0.967158
vt 0.223281 0.963810
vt 0.240116 0.963810
vt 0.223281 0.967158
vt 0.238834 0.960717
vt 0.224562 0.970253
vt 0.226930 0.972620
vt 0.230023 0.973901
vt 0.309247 0.906084
vt 0.305457 0.909873
vt 0.305281 0.902118
vt 0.313036 0.902294
vt 0.301316 0.898153
vt 0.309071 0.898329
vt 0.297351 0.894188
vt 0.305106 0.894363
vt 0.293385 0.890222
vt 0.301140 0.890398
vt 0.289420 0.886257
vt 0.297175 0.886433
vt 0.285455 0.882292
vt 0.293209 0.882467
vt 0.296999 0.878678
vt 0.300964 0.882643
vt 0.289244 0.878502
vt 0.304754 0.878854
vt 0.308719 0.882819
vt 0.304930 0.886608
vt 0.312685 0.886784
vt 0.308895 0.890574
vt 0.316650 0.890750
vt 0.312861 0.894539
vt 0.320616 0.894715
vt 0.316826 0.898505
vt 0.320439 0.886961
vt 0.324404 0.890926
vt 0.324228 0.883171
vt 0.328194 0.887137
vt 0.316473 0.882996
vt 0.320263 0.879206
vt 0.312509 0.879029
vt 0.316298 0.875241
vt 0.308544 0.875064
vt 0.312332 0.871275
vt 0.304578 0.871099
vt 0.300789 0.874888
vt 0.296823 0.870923
vt 0.293034 0.874712
vt 0.308367 0.867310
vt 0.300613 0.867133
vt 0.312157 0.863520
vt 0.316122 0.867486
vt 0.304402 0.863345
vt 0.319912 0.863696
vt 0.323877 0.867661
vt 0.320087 0.871451
vt 0.327842 0.871627
vt 0.324053 0.875416
vt 0.331808 0.875592
vt 0.328018 0.879382
vt 0.335773 0.879558
vt 0.331983 0.883347
vt 0.315946 0.859731
vt 0.308191 0.859555
vt 0.311981 0.855765
vt 0.354721 0.860610
vt 0.350931 0.864399
vt 0.346966 0.860434
vt 0.350756 0.856644
vt 0.343001 0.856468
vt 0.358511 0.856820
vt 0.301668 0.913663
vt 0.297878 0.917453
vt 0.327139 0.840607
vn -0.0000 1.0000 -0.0000
vn 0.1543 0.9151 -0.3724
vn -0.0000 0.9152 -0.4031
vn -0.1543 0.9152 -0.3724
vn -0.2850 0.9151 -0.2851
vn -0.3724 0.9151 -0.1543
vn -0.4031 0.9151 -0.0000
vn -0.3724 0.9151 0.1543
vn -0.2850 0.9152 0.2850
vn -0.1543 0.9151 0.3724
vn -0.0000 0.9152 0.4031
vn 0.1543 0.9151 0.3724
vn 0.2850 0.9152 0.2851
vn 0.3724 0.9151 0.1543
vn 0.4031 0.9151 -0.0000
vn 0.3724 0.9151 -0.1543
vn 0.2850 0.9151 -0.2851
vn 0.5083 0.6952 -0.5083
vn 0.2751 0.6952 -0.6641
vn 0.6557 0.3744 -0.6557
vn 0.3549 0.3744 -0.8567
vn 0.0000 0.6952 -0.7188
vn -0.2751 0.6952 -0.6641
vn -0.0000 0.3744 -0.9273
vn 0.3827 0.0000 -0.9239
vn -0.3549 0.3744 -0.8567
vn -0.0000 0.0000 -1.0000
vn 0.7071 -0.0000 -0.7071
vn 0.6557 -0.3744 -0.6557
vn 0.3549 -0.3744 -0.8567
vn 0.5083 -0.6952 -0.5083
vn 0.2751 -0.6952 -0.6641
vn 0.0000 -0.3744 -0.9273
vn -0.3827 0.0000 -0.9239
vn -0.3549 -0.3744 -0.8567
vn -0.0000 -0.6952 -0.7188
vn -0.6557 0.3744 -0.6557
vn -0.7071 0.0000 -0.7071
vn -0.5083 0.6952 -0.5083
vn -0.6641 0.6952 -0.2751
vn -0.8567 0.3744 -0.3548
vn -0.7189 0.6952 -0.0000
vn -0.6641 0.6952 0.2751
vn -0.9273 0.3744 -0.0000
vn -0.9239 0.0000 -0.3827
vn -0.8567 0.3744 0.3549
vn -1.0000 0.0000 -0.0000
vn -0.8567 -0.3744 -0.3548
vn -0.9239 -0.0000 0.3827
vn -0.9273 -0.3744 -0.0000
vn -0.6641 -0.6952 -0.2751
vn -0.8567 -0.3744 0.3548
vn -0.7189 -0.6952 0.0000
vn -0.3724 -0.9151 -0.1543
vn -0.6641 -0.6952 0.2751
vn -0.4031 -0.9151 -0.0000
vn -0.0000 -1.0000 -0.0000
vn -0.3724 -0.9151 0.1543
vn 0.1542 -0.9152 -0.3724
vn 0.2850 -0.9151 -0.2851
vn 0.3724 -0.9151 -0.1543
vn -0.1543 -0.9151 0.3724
vn -0.2850 -0.9152 0.2850
vn 0.0000 -0.9151 -0.4031
vn 0.0000 -0.9152 0.4031
vn -0.1543 -0.9151 -0.3724
vn 0.1543 -0.9151 0.3724
vn -0.2850 -0.9151 -0.2851
vn 0.2850 -0.9152 0.2850
vn 0.3724 -0.9151 0.1543
vn 0.4031 -0.9151 -0.0000
vn 0.6641 -0.6952 -0.2751
vn 0.8567 -0.3744 -0.3548
vn 0.7189 -0.6952 -0.0000
vn 0.9239 -0.0000 -0.3827
vn 0.9273 -0.3744 -0.0000
vn 0.8567 0.3744 -0.3548
vn 1.0000 0.0000 -0.0000
vn 0.6641 0.6952 -0.2751
vn 0.9273 0.3744 0.0000
vn 0.7189 0.6952 0.0000
vn 0.6641 0.6952 0.2751
vn 0.8567 0.3744 0.3548
vn 0.6557 0.3744 0.6557
vn 0.7071 0.0000 0.7071
vn 0.9239 0.0000 0.3827
vn 0.6557 -0.3744 0.6557
vn 0.8567 -0.3744 0.3549
vn 0.5083 -0.6952 0.5083
vn 0.6641 -0.6952 0.2751
vn 0.2751 -0.6952 0.6641
vn -0.0000 -0.6951 0.7189
vn 0.3549 -0.3744 0.8567
vn 0.0000 -0.3744 0.9273
vn 0.3827 -0.0000 0.9239
vn 0.0000 0.0000 1.0000
vn 0.3549 0.3744 0.8567
vn -0.0000 0.3744 0.9273
vn 0.2751 0.6952 0.6641
vn 0.5083 0.6952 0.5083
vn 0.0000 0.6951 0.7189
vn -0.2751 0.6952 0.6641
vn -0.3549 0.3744 0.8567
vn -0.6557 0.3744 0.6557
vn -0.7071 -0.0000 0.7071
vn -0.3827 0.0000 0.9239
vn -0.6557 -0.3744 0.6557
vn -0.3549 -0.3744 0.8567
vn -0.5083 -0.6952 0.5083
vn -0.2751 -0.6952 0.6641
vn -0.5083 0.6952 0.5083
vn -0.5083 -0.6952 -0.5083
vn -0.2751 -0.6952 -0.6641
vn -0.6557 -0.3744 -0.6557
usemtl None
s 1
f 1/1/1 2/2/2 3/3/3
f 1/1/1 3/3/3 4/4/4
f 1/1/1 4/4/4 5/5/5
f 1/1/1 5/5/5 6/6/6
f 1/1/1 6/6/6 7/7/7
f 1/1/1 7/7/7 8/8/8
f 1/1/1 8/8/8 9/9/9
f 1/1/1 9/9/9 10/10/10
f 1/1/1 10/10/10 11/11/11
f 1/1/1 11/11/11 12/12/12
f 1/1/1 12/12/12 13/13/13
f 1/1/1 13/13/13 14/14/14
f 1/1/1 14/14/14 15/15/15
f 1/1/1 15/15/15 16/16/16
f 1/1/1 16/16/16 17/17/17
f 1/1/1 17/17/17 2/2/2
f 2/18/2 17/19/17 18/20/18
f 18/20/18 19/21/19 2/18/2
f 3/22/3 2/18/2 19/21/19
f 19/21/19 18/20/18 20/23/20
f 20/23/20 21/24/21 19/21/19
f 22/25/22 19/21/19 21/24/21
f 19/21/19 22/25/22 3/22/3
f 4/26/4 3/27/3 22/28/22
f 23/29/23 22/28/22 24/30/24
f 22/28/22 23/29/23 4/26/4
f 21/24/21 24/31/24 22/25/22
f 24/31/24 21/24/21 25/32/25
f 26/33/26 24/30/24 27/34/27
f 24/30/24 26/33/26 23/29/23
f 25/32/25 27/35/27 24/31/24
f 25/32/25 28/36/28 29/37/29
f 28/36/28 25/32/25 21/24/21
f 29/37/29 30/38/30 25/32/25
f 27/35/27 25/32/25 30/38/30
f 30/38/30 29/37/29 31/39/31
f 31/39/31 32/40/32 30/38/30
f 33/41/33 30/38/30 32/40/32
f 30/38/30 33/41/33 27/35/27
f 34/42/34 27/34/27 33/43/33
f 35/44/35 33/43/33 36/45/36
f 33/43/33 35/44/35 34/42/34
f 32/40/32 36/46/36 33/41/33
f 27/34/27 34/42/34 26/33/26
f 37/47/37 26/33/26 34/42/34
f 38/48/38 34/42/34 35/44/35
f 34/42/34 38/48/38 37/47/37
f 26/33/26 37/47/37 39/49/39
f 40/50/40 39/49/39 37/47/37
f 41/51/41 37/47/37 38/48/38
f 37/47/37 41/51/41 40/50/40
f 39/49/39 40/50/40 6/52/6
f 7/53/7 6/52/6 40/50/40
f 42/54/42 40/50/40 41/51/41
f 40/50/40 42/54/42 7/53/7
f 8/55/8 7/53/7 42/54/42
f 43/56/43 42/54/42 44/57/44
f 42/54/42 43/56/43 8/55/8
f 41/51/41 44/57/44 42/54/42
f 44/57/44 41/51/41 45/58/45
f 46/59/46 44/57/44 47/60/47
f 44/57/44 46/59/46 43/56/43
f 45/58/45 47/60/47 44/57/44
f 47/60/47 45/58/45 48/61/48
f 49/62/49 47/60/47 50/63/50
f 47/60/47 49/62/49 46/59/46
f 48/61/48 50/63/50 47/60/47
f 50/63/50 48/61/48 51/64/51
f 52/65/52 50/63/50 53/66/53
f 50/63/50 52/65/52 49/62/49
f 51/64/51 53/66/53 50/63/50
f 53/66/53 51/64/51 54/67/54
f 55/68/55 53/66/53 56/69/56
f 53/66/53 55/68/55 52/65/52
f 54/67/54 56/69/56 53/66/53
f 57/70/57 56/71/56 54/72/54
f 57/70/57 58/73/58 56/71/56
f 56/69/56 58/74/58 55/68/55
f 57/70/57 59/75/59 60/76/60
f 57/70/57 60/76/60 61/77/61
f 57/70/57 62/78/62 63/79/63
f 57/70/57 63/79/63 58/73/58
f 57/70/57 64/80/64 59/75/59
f 57/70/57 65/81/65 62/78/62
f 57/70/57 66/82/66 64/80/64
f 57/70/57 67/83/67 65/81/65
f 57/70/57 68/84/68 66/82/66
f 57/70/57 69/85/69 67/83/67
f 57/70/57 54/72/54 68/84/68
f 57/70/57 70/86/70 69/85/69
f 57/70/57 71/87/71 70/86/70
f 57/70/57 61/77/61 71/87/71
f 61/88/61 60/89/60 31/39/31
f 31/39/31 72/90/72 61/88/61
f 71/91/71 61/88/61 72/90/72
f 72/90/72 31/39/31 29/37/29
f 29/37/29 73/92/73 72/90/72
f 72/90/72 74/93/74 71/91/71
f 74/93/74 72/90/72 73/92/73
f 73/92/73 29/37/29 28/36/28
f 28/36/28 75/94/75 73/92/73
f 73/92/73 76/95/76 74/93/74
f 76/95/76 73/92/73 75/94/75
f 75/94/75 28/36/28 20/23/20
f 20/23/20 77/96/77 75/94/75
f 75/94/75 78/97/78 76/95/76
f 78/97/78 75/94/75 77/96/77
f 77/96/77 20/23/20 18/20/18
f 18/20/18 79/98/79 77/96/77
f 77/96/77 80/99/80 78/97/78
f 80/99/80 77/96/77 79/98/79
f 79/98/79 18/20/18 17/19/17
f 17/19/17 16/100/16 79/98/79
f 79/98/79 81/101/81 80/99/80
f 81/101/81 79/98/79 16/100/16
f 81/101/81 82/102/82 83/103/83
f 82/102/82 81/101/81 15/104/15
f 16/100/16 15/104/15 81/101/81
f 83/103/83 80/99/80 81/101/81
f 83/103/83 84/105/84 85/106/85
f 84/105/84 83/103/83 82/102/82
f 80/99/80 83/103/83 86/107/86
f 85/106/85 86/107/86 83/103/83
f 86/107/86 85/106/85 87/108/87
f 78/97/78 86/107/86 88/109/88
f 86/107/86 78/97/78 80/99/80
f 87/108/87 88/109/88 86/107/86
f 88/109/88 87/108/87 89/110/89
f 76/95/76 88/109/88 90/111/90
f 88/109/88 76/95/76 78/97/78
f 89/110/89 90/111/90 88/109/88
f 90/111/90 89/110/89 69/112/69
f 74/93/74 90/111/90 70/113/70
f 90/111/90 74/93/74 76/95/76
f 69/112/69 70/113/70 90/111/90
f 89/110/89 91/114/91 67/115/67
f 91/114/91 89/110/89 87/108/87
f 67/115/67 69/112/69 89/110/89
f 91/114/91 92/116/92 65/117/65
f 92/116/92 91/114/91 93/118/93
f 87/108/87 93/118/93 91/114/91
f 65/117/65 67/115/67 91/114/91
f 93/118/93 94/119/94 92/116/92
f 94/119/94 93/118/93 95/120/95
f 85/106/85 95/120/95 93/118/93
f 93/118/93 87/108/87 85/106/85
f 95/120/95 96/121/96 94/119/94
f 96/121/96 95/120/95 97/122/97
f 84/105/84 97/122/97 95/120/95
f 95/120/95 85/106/85 84/105/84
f 97/122/97 98/123/98 96/121/96
f 98/123/98 97/122/97 99/124/99
f 100/125/100 99/124/99 97/122/97
f 97/122/97 84/105/84 100/125/100
f 99/124/99 100/125/100 13/126/13
f 14/127/14 13/126/13 100/125/100
f 82/102/82 100/125/100 84/105/84
f 100/125/100 82/102/82 14/127/14
f 99/124/99 101/128/101 98/123/98
f 101/128/101 99/124/99 12/129/12
f 13/126/13 12/129/12 99/124/99
f 101/128/101 102/130/102 103/131/103
f 102/130/102 101/128/101 11/132/11
f 12/129/12 11/132/11 101/128/101
f 103/131/103 98/123/98 101/128/101
f 103/131/103 104/133/104 105/134/105
f 104/133/104 103/131/103 102/130/102
f 98/123/98 103/131/103 106/135/106
f 105/134/105 106/135/106 103/131/103
f 106/135/106 105/134/105 107/136/107
f 96/121/96 106/135/106 108/137/108
f 106/135/106 96/121/96 98/123/98
f 107/136/107 108/137/108 106/135/106
f 108/137/108 107/136/107 109/138/109
f 94/119/94 108/137/108 110/139/110
f 108/137/108 94/119/94 96/121/96
f 109/138/109 110/139/110 108/137/108
f 110/139/110 109/138/109 63/140/63
f 92/116/92 110/139/110 62/141/62
f 110/139/110 92/116/92 94/119/94
f 63/140/63 62/141/62 110/139/110
f 55/68/55 109/138/109 107/136/107
f 58/74/58 63/140/63 109/138/109
f 109/138/109 55/68/55 58/74/58
f 52/65/52 107/136/107 105/134/105
f 107/136/107 52/65/52 55/68/55
f 49/62/49 105/134/105 104/133/104
f 105/134/105 49/62/49 52/65/52
f 102/130/102 111/142/111 104/133/104
f 46/59/46 104/133/104 111/142/111
f 104/133/104 46/59/46 49/62/49
f 10/143/10 9/144/9 111/142/111
f 43/56/43 111/142/111 9/144/9
f 111/142/111 102/130/102 10/143/10
f 111/142/111 43/56/43 46/59/46
f 11/132/11 10/143/10 102/130/102
f 62/141/62 65/117/65 92/116/92
f 15/104/15 14/127/14 82/102/82
f 70/113/70 71/91/71 74/93/74
f 66/145/66 68/146/68 112/147/112
f 51/64/51 112/147/112 68/146/68
f 68/146/68 54/67/54 51/64/51
f 112/147/112 113/148/113 66/145/66
f 113/148/113 112/147/112 114/149/114
f 48/61/48 114/149/114 112/147/112
f 112/147/112 51/64/51 48/61/48
f 114/149/114 35/44/35 113/148/113
f 35/44/35 114/149/114 38/48/38
f 45/58/45 38/48/38 114/149/114
f 114/149/114 48/61/48 45/58/45
f 113/148/113 36/45/36 64/150/64
f 36/45/36 113/148/113 35/44/35
f 64/150/64 66/145/66 113/148/113
f 59/151/59 64/152/64 36/46/36
f 60/89/60 59/151/59 32/40/32
f 36/46/36 32/40/32 59/151/59
f 32/40/32 31/39/31 60/89/60
f 38/48/38 45/58/45 41/51/41
f 9/144/9 8/55/8 43/56/43
f 39/49/39 23/29/23 26/33/26
f 23/29/23 39/49/39 5/153/5
f 6/52/6 5/153/5 39/49/39
f 21/24/21 20/23/20 28/36/28
f 5/153/5 4/26/4 23/29/23
