# Blender v3.0.0 OBJ File: ''
# www.blender.org
mtllib bola1.mtl
o POOL_TABLE.025
v -0.361790 1.038676 -0.011755
v -0.357506 1.036449 -0.022096
v -0.361790 1.036449 -0.022948
v -0.366073 1.036449 -0.022096
v -0.369705 1.036449 -0.019670
v -0.372131 1.036449 -0.016038
v -0.372984 1.036449 -0.011755
v -0.372131 1.036449 -0.007471
v -0.369705 1.036449 -0.003839
v -0.366073 1.036449 -0.001413
v -0.361790 1.036449 -0.000561
v -0.357506 1.036449 -0.001413
v -0.353875 1.036449 -0.003839
v -0.351448 1.036449 -0.007471
v -0.350596 1.036449 -0.011755
v -0.351448 1.036449 -0.016038
v -0.353875 1.036449 -0.019670
v -0.347165 1.030108 -0.026380
v -0.353875 1.030108 -0.030863
v -0.342681 1.020619 -0.030863
v -0.351448 1.020619 -0.036722
v -0.361790 1.030108 -0.032438
v -0.369705 1.030108 -0.030863
v -0.361790 1.020619 -0.038779
v -0.372131 1.020619 -0.036722
v -0.361790 1.009425 -0.041005
v -0.350596 1.009425 -0.038779
v -0.341106 1.009425 -0.032438
v -0.342681 0.998231 -0.030863
v -0.351448 0.998231 -0.036722
v -0.347165 0.988742 -0.026380
v -0.353875 0.988742 -0.030863
v -0.361790 0.998231 -0.038779
v -0.372984 1.009425 -0.038779
v -0.372131 0.998231 -0.036722
v -0.361790 0.988742 -0.032438
v -0.380899 1.020619 -0.030863
v -0.382473 1.009425 -0.032438
v -0.376415 1.030108 -0.026380
v -0.380899 1.030108 -0.019670
v -0.386757 1.020619 -0.022096
v -0.382473 1.030108 -0.011755
v -0.380899 1.030108 -0.003839
v -0.388814 1.020619 -0.011755
v -0.386757 1.020619 -0.001413
v -0.391040 1.009425 -0.011755
v -0.388814 1.009425 -0.022948
v -0.388814 1.009425 -0.000561
v -0.388814 0.998231 -0.011755
v -0.386757 0.998231 -0.022096
v -0.386757 0.998231 -0.001413
v -0.382473 0.988742 -0.011755
v -0.380899 0.988742 -0.019670
v -0.380899 0.988742 -0.003839
v -0.372984 0.982401 -0.011755
v -0.372131 0.982401 -0.016038
v -0.361790 0.980174 -0.011755
v -0.372131 0.982401 -0.007471
v -0.351448 0.982401 -0.016038
v -0.350596 0.982401 -0.011755
v -0.351448 0.982401 -0.007471
v -0.353875 0.982401 -0.019670
v -0.369705 0.982401 -0.003839
v -0.357506 0.982401 -0.022096
v -0.366073 0.982401 -0.001413
v -0.361790 0.982401 -0.022948
v -0.361790 0.982401 -0.000561
v -0.366073 0.982401 -0.022096
v -0.357506 0.982401 -0.001413
v -0.369705 0.982401 -0.019670
v -0.353875 0.982401 -0.003839
v -0.341106 0.988742 -0.011755
v -0.342681 0.988742 -0.003839
v -0.334766 0.998231 -0.011755
v -0.336823 0.998231 -0.001413
v -0.347164 0.988742 0.002871
v -0.332539 1.009425 -0.011755
v -0.334766 1.009425 -0.000561
v -0.342681 0.998231 0.007354
v -0.334766 1.020619 -0.011755
v -0.336823 1.020619 -0.001413
v -0.341106 1.009425 0.008929
v -0.341106 1.030108 -0.011755
v -0.342681 1.030108 -0.003839
v -0.342681 1.020619 0.007354
v -0.347164 1.030108 0.002871
v -0.353875 1.030108 0.007354
v -0.351448 1.020619 0.013212
v -0.361790 1.020619 0.015269
v -0.361790 1.009425 0.017496
v -0.350596 1.009425 0.015269
v -0.361790 0.998231 0.015269
v -0.351448 0.998231 0.013212
v -0.361790 0.988742 0.008929
v -0.353875 0.988742 0.007354
v -0.369705 0.988742 0.007354
v -0.376415 0.988742 0.002871
v -0.372132 0.998231 0.013212
v -0.380899 0.998231 0.007354
v -0.372984 1.009425 0.015269
v -0.382473 1.009425 0.008929
v -0.372132 1.020619 0.013212
v -0.380899 1.020619 0.007354
v -0.369705 1.030108 0.007354
v -0.361790 1.030108 0.008929
v -0.376415 1.030108 0.002871
v -0.342681 1.030108 -0.019670
v -0.336823 1.020619 -0.022096
v -0.334766 1.009425 -0.022948
v -0.336823 0.998231 -0.022096
v -0.342681 0.988742 -0.019670
v -0.376415 0.988742 -0.026380
v -0.369705 0.988742 -0.030863
v -0.380899 0.998231 -0.030863
vt 0.320642 0.968385
vt 0.315874 0.975521
vt 0.313506 0.973153
vt 0.312224 0.970058
vt 0.312224 0.966710
vt 0.313506 0.963617
vt 0.315874 0.961248
vt 0.318967 0.959967
vt 0.322315 0.959967
vt 0.325410 0.961248
vt 0.327777 0.963616
vt 0.329058 0.966710
vt 0.329058 0.970058
vt 0.327777 0.973152
vt 0.325410 0.975519
vt 0.322315 0.976801
vt 0.318967 0.976801
vt 0.388233 0.855716
vt 0.393593 0.855716
vt 0.393593 0.861324
vt 0.388233 0.861324
vt 0.382874 0.855716
vt 0.393593 0.866932
vt 0.388233 0.866932
vt 0.382874 0.861324
vt 0.463262 0.855716
vt 0.468621 0.855716
vt 0.468621 0.861324
vt 0.463262 0.861324
vt 0.468621 0.866932
vt 0.382874 0.866932
vt 0.463262 0.866932
vt 0.468621 0.872540
vt 0.388233 0.872540
vt 0.382874 0.872540
vt 0.393593 0.872540
vt 0.393593 0.878147
vt 0.388233 0.878147
vt 0.393593 0.883755
vt 0.388233 0.883755
vt 0.382874 0.878147
vt 0.463262 0.872540
vt 0.468621 0.878147
vt 0.463262 0.878147
vt 0.468621 0.883755
vt 0.382874 0.883755
vt 0.457903 0.866932
vt 0.457903 0.872540
vt 0.457903 0.861324
vt 0.452543 0.861324
vt 0.452543 0.866932
vt 0.447184 0.861324
vt 0.447184 0.855716
vt 0.452543 0.855716
vt 0.441825 0.855716
vt 0.441825 0.861324
vt 0.447184 0.866932
vt 0.441825 0.866932
vt 0.447184 0.872540
vt 0.452543 0.872540
vt 0.441825 0.872540
vt 0.447184 0.878147
vt 0.452543 0.878147
vt 0.441825 0.878147
vt 0.447184 0.883755
vt 0.452543 0.883755
vt 0.441825 0.883755
vt 0.447184 0.889363
vt 0.452543 0.889363
vt 0.141788 0.933581
vt 0.148924 0.938349
vt 0.146555 0.940717
vt 0.441825 0.889363
vt 0.143462 0.941998
vt 0.134651 0.928813
vt 0.137020 0.926445
vt 0.140113 0.925164
vt 0.133370 0.931906
vt 0.150205 0.935255
vt 0.133370 0.935255
vt 0.150205 0.931906
vt 0.134651 0.938349
vt 0.148924 0.928813
vt 0.137020 0.940717
vt 0.146555 0.926445
vt 0.140113 0.941998
vt 0.143462 0.925164
vt 0.409670 0.889363
vt 0.404311 0.889363
vt 0.404311 0.883755
vt 0.409670 0.883755
vt 0.415030 0.889363
vt 0.404311 0.878147
vt 0.409670 0.878147
vt 0.415030 0.883755
vt 0.404311 0.872540
vt 0.409670 0.872540
vt 0.415030 0.878147
vt 0.404311 0.866932
vt 0.409670 0.866932
vt 0.415030 0.872540
vt 0.404311 0.861324
vt 0.409670 0.861324
vt 0.415030 0.866932
vt 0.404311 0.855716
vt 0.409670 0.855716
vt 0.415030 0.861324
vt 0.420389 0.861324
vt 0.420389 0.866932
vt 0.415030 0.855716
vt 0.425748 0.866932
vt 0.425748 0.872540
vt 0.420389 0.872540
vt 0.425748 0.878147
vt 0.420389 0.878147
vt 0.425748 0.883755
vt 0.420389 0.883755
vt 0.425748 0.889363
vt 0.420389 0.889363
vt 0.431108 0.883755
vt 0.431106 0.889363
vt 0.436466 0.883755
vt 0.436466 0.889363
vt 0.431108 0.878147
vt 0.436466 0.878147
vt 0.431108 0.872540
vt 0.436466 0.872540
vt 0.431108 0.866932
vt 0.436466 0.866932
vt 0.431108 0.861324
vt 0.425748 0.861324
vt 0.425748 0.855716
vt 0.420389 0.855716
vt 0.436466 0.861324
vt 0.431108 0.855716
vt 0.436466 0.855716
vt 0.398952 0.855716
vt 0.398952 0.861324
vt 0.398952 0.866932
vt 0.398952 0.872540
vt 0.398952 0.878147
vt 0.398952 0.883755
vt 0.398952 0.889363
vt 0.463262 0.889363
vt 0.457903 0.889363
vt 0.457903 0.883755
vt 0.463262 0.883755
vt 0.457903 0.878147
vt 0.468621 0.889363
vt 0.388233 0.889363
vt 0.382874 0.889363
vt 0.393593 0.889363
vt 0.457903 0.855716
vn -0.0000 1.0000 -0.0000
vn 0.1543 0.9151 -0.3725
vn -0.0000 0.9151 -0.4031
vn -0.1542 0.9152 -0.3724
vn -0.2851 0.9151 -0.2851
vn -0.3724 0.9152 -0.1543
vn -0.4031 0.9151 0.0000
vn -0.3724 0.9152 0.1542
vn -0.2850 0.9151 0.2851
vn -0.1542 0.9151 0.3724
vn -0.0000 0.9152 0.4031
vn 0.1543 0.9151 0.3724
vn 0.2850 0.9152 0.2851
vn 0.3724 0.9151 0.1543
vn 0.4031 0.9152 -0.0000
vn 0.3724 0.9151 -0.1543
vn 0.2850 0.9151 -0.2851
vn 0.5083 0.6952 -0.5083
vn 0.2751 0.6952 -0.6641
vn 0.6557 0.3744 -0.6556
vn 0.3549 0.3744 -0.8567
vn -0.0000 0.6952 -0.7188
vn -0.2751 0.6952 -0.6641
vn -0.0000 0.3744 -0.9273
vn -0.3548 0.3744 -0.8567
vn -0.0000 0.0000 -1.0000
vn 0.3827 -0.0000 -0.9239
vn 0.7071 -0.0000 -0.7071
vn 0.6557 -0.3744 -0.6557
vn 0.3549 -0.3744 -0.8567
vn 0.5083 -0.6952 -0.5083
vn 0.2751 -0.6952 -0.6641
vn 0.0000 -0.3744 -0.9273
vn -0.3827 0.0000 -0.9239
vn -0.3549 -0.3744 -0.8567
vn 0.0000 -0.6952 -0.7188
vn -0.6557 0.3744 -0.6557
vn -0.7071 -0.0000 -0.7071
vn -0.5083 0.6952 -0.5083
vn -0.6641 0.6952 -0.2751
vn -0.8567 0.3744 -0.3549
vn -0.7188 0.6952 -0.0000
vn -0.6641 0.6952 0.2751
vn -0.9273 0.3744 -0.0000
vn -0.8567 0.3744 0.3548
vn -1.0000 0.0000 -0.0000
vn -0.9239 -0.0000 -0.3827
vn -0.9239 0.0000 0.3827
vn -0.9273 -0.3744 -0.0000
vn -0.8567 -0.3744 -0.3549
vn -0.8567 -0.3744 0.3548
vn -0.7188 -0.6952 -0.0000
vn -0.6641 -0.6952 -0.2751
vn -0.6641 -0.6952 0.2751
vn -0.4031 -0.9151 -0.0000
vn -0.3724 -0.9152 -0.1542
vn -0.0000 -1.0000 -0.0000
vn -0.3724 -0.9152 0.1543
vn 0.3724 -0.9151 -0.1543
vn 0.4031 -0.9152 -0.0000
vn 0.3724 -0.9151 0.1543
vn 0.2850 -0.9151 -0.2851
vn -0.2851 -0.9151 0.2850
vn 0.1543 -0.9151 -0.3724
vn -0.1542 -0.9152 0.3724
vn -0.0000 -0.9151 -0.4031
vn -0.0000 -0.9151 0.4031
vn -0.1542 -0.9151 -0.3725
vn 0.1543 -0.9151 0.3724
vn -0.2850 -0.9151 -0.2851
vn 0.2850 -0.9152 0.2851
vn 0.7189 -0.6951 -0.0000
vn 0.6641 -0.6952 0.2751
vn 0.9273 -0.3744 -0.0000
vn 0.8567 -0.3744 0.3549
vn 0.5083 -0.6951 0.5083
vn 1.0000 0.0000 -0.0000
vn 0.9239 -0.0000 0.3827
vn 0.6557 -0.3744 0.6557
vn 0.9273 0.3744 -0.0000
vn 0.8567 0.3744 0.3548
vn 0.7071 0.0000 0.7071
vn 0.7189 0.6951 -0.0000
vn 0.6641 0.6952 0.2751
vn 0.6557 0.3744 0.6557
vn 0.5083 0.6951 0.5083
vn 0.2751 0.6952 0.6641
vn 0.3549 0.3744 0.8567
vn -0.0000 0.3744 0.9273
vn 0.0000 -0.0000 1.0000
vn 0.3827 0.0000 0.9239
vn 0.0000 -0.3744 0.9273
vn 0.3548 -0.3744 0.8567
vn -0.0000 -0.6951 0.7189
vn 0.2751 -0.6952 0.6641
vn -0.2751 -0.6952 0.6641
vn -0.5083 -0.6952 0.5083
vn -0.3549 -0.3744 0.8567
vn -0.6557 -0.3744 0.6557
vn -0.3827 0.0000 0.9239
vn -0.7071 -0.0000 0.7071
vn -0.3549 0.3744 0.8567
vn -0.6557 0.3744 0.6557
vn -0.2751 0.6952 0.6641
vn 0.0000 0.6951 0.7189
vn -0.5083 0.6952 0.5083
vn 0.6641 0.6952 -0.2751
vn 0.8567 0.3744 -0.3549
vn 0.9239 0.0000 -0.3827
vn 0.8567 -0.3744 -0.3549
vn 0.6641 -0.6952 -0.2751
vn -0.5083 -0.6952 -0.5083
vn -0.2751 -0.6952 -0.6641
vn -0.6557 -0.3744 -0.6557
usemtl (null)
s 1
f 1/1/1 2/2/2 3/3/3
f 1/1/1 3/3/3 4/4/4
f 1/1/1 4/4/4 5/5/5
f 1/1/1 5/5/5 6/6/6
f 1/1/1 6/6/6 7/7/7
f 1/1/1 7/7/7 8/8/8
f 1/1/1 8/8/8 9/9/9
f 1/1/1 9/9/9 10/10/10
f 1/1/1 10/10/10 11/11/11
f 1/1/1 11/11/11 12/12/12
f 1/1/1 12/12/12 13/13/13
f 1/1/1 13/13/13 14/14/14
f 1/1/1 14/14/14 15/15/15
f 1/1/1 15/15/15 16/16/16
f 1/1/1 16/16/16 17/17/17
f 1/1/1 17/17/17 2/2/2
f 2/18/2 17/19/17 18/20/18
f 18/20/18 19/21/19 2/18/2
f 3/22/3 2/18/2 19/21/19
f 19/21/19 18/20/18 20/23/20
f 20/23/20 21/24/21 19/21/19
f 22/25/22 19/21/19 21/24/21
f 19/21/19 22/25/22 3/22/3
f 4/26/4 3/27/3 22/28/22
f 23/29/23 22/28/22 24/30/24
f 22/28/22 23/29/23 4/26/4
f 21/24/21 24/31/24 22/25/22
f 25/32/25 24/30/24 26/33/26
f 24/30/24 25/32/25 23/29/23
f 27/34/27 26/35/26 24/31/24
f 24/31/24 21/24/21 27/34/27
f 27/34/27 28/36/28 29/37/29
f 28/36/28 27/34/27 21/24/21
f 29/37/29 30/38/30 27/34/27
f 26/35/26 27/34/27 30/38/30
f 30/38/30 29/37/29 31/39/31
f 31/39/31 32/40/32 30/38/30
f 33/41/33 30/38/30 32/40/32
f 30/38/30 33/41/33 26/35/26
f 34/42/34 26/33/26 33/43/33
f 35/44/35 33/43/33 36/45/36
f 33/43/33 35/44/35 34/42/34
f 32/40/32 36/46/36 33/41/33
f 26/33/26 34/42/34 25/32/25
f 37/47/37 25/32/25 34/42/34
f 38/48/38 34/42/34 35/44/35
f 34/42/34 38/48/38 37/47/37
f 25/32/25 37/47/37 39/49/39
f 40/50/40 39/49/39 37/47/37
f 41/51/41 37/47/37 38/48/38
f 37/47/37 41/51/41 40/50/40
f 40/50/40 42/52/42 7/53/7
f 7/53/7 6/54/6 40/50/40
f 39/49/39 40/50/40 6/54/6
f 42/52/42 40/50/40 41/51/41
f 8/55/8 7/53/7 42/52/42
f 43/56/43 42/52/42 44/57/44
f 42/52/42 43/56/43 8/55/8
f 41/51/41 44/57/44 42/52/42
f 45/58/45 44/57/44 46/59/46
f 44/57/44 45/58/45 43/56/43
f 47/60/47 46/59/46 44/57/44
f 44/57/44 41/51/41 47/60/47
f 48/61/48 46/59/46 49/62/49
f 46/59/46 48/61/48 45/58/45
f 50/63/50 49/62/49 46/59/46
f 46/59/46 47/60/47 50/63/50
f 51/64/51 49/62/49 52/65/52
f 49/62/49 51/64/51 48/61/48
f 53/66/53 52/65/52 49/62/49
f 49/62/49 50/63/50 53/66/53
f 54/67/54 52/65/52 55/68/55
f 52/65/52 54/67/54 51/64/51
f 56/69/56 55/68/55 52/65/52
f 52/65/52 53/66/53 56/69/56
f 57/70/57 58/71/58 55/72/55
f 55/68/55 58/73/58 54/67/54
f 57/70/57 55/72/55 56/74/56
f 57/70/57 59/75/59 60/76/60
f 57/70/57 60/76/60 61/77/61
f 57/70/57 62/78/62 59/75/59
f 57/70/57 63/79/63 58/71/58
f 57/70/57 64/80/64 62/78/62
f 57/70/57 65/81/65 63/79/63
f 57/70/57 66/82/66 64/80/64
f 57/70/57 67/83/67 65/81/65
f 57/70/57 68/84/68 66/82/66
f 57/70/57 69/85/69 67/83/67
f 57/70/57 70/86/70 68/84/68
f 57/70/57 71/87/71 69/85/69
f 57/70/57 56/74/56 70/86/70
f 57/70/57 61/77/61 71/87/71
f 61/88/61 60/89/60 72/90/72
f 72/90/72 73/91/73 61/88/61
f 71/92/71 61/88/61 73/91/73
f 73/91/73 72/90/72 74/93/74
f 74/93/74 75/94/75 73/91/73
f 73/91/73 76/95/76 71/92/71
f 76/95/76 73/91/73 75/94/75
f 75/94/75 74/93/74 77/96/77
f 77/96/77 78/97/78 75/94/75
f 75/94/75 79/98/79 76/95/76
f 79/98/79 75/94/75 78/97/78
f 78/97/78 77/96/77 80/99/80
f 80/99/80 81/100/81 78/97/78
f 78/97/78 82/101/82 79/98/79
f 82/101/82 78/97/78 81/100/81
f 81/100/81 80/99/80 83/102/83
f 83/102/83 84/103/84 81/100/81
f 81/100/81 85/104/85 82/101/82
f 85/104/85 81/100/81 84/103/84
f 84/103/84 83/102/83 15/105/15
f 15/105/15 14/106/14 84/103/84
f 84/103/84 86/107/86 85/104/85
f 86/107/86 84/103/84 14/106/14
f 86/107/86 87/108/87 88/109/88
f 87/108/87 86/107/86 13/110/13
f 14/106/14 13/110/13 86/107/86
f 88/109/88 85/104/85 86/107/86
f 88/109/88 89/111/89 90/112/90
f 89/111/89 88/109/88 87/108/87
f 85/104/85 88/109/88 91/113/91
f 90/112/90 91/113/91 88/109/88
f 91/113/91 90/112/90 92/114/92
f 82/101/82 91/113/91 93/115/93
f 91/113/91 82/101/82 85/104/85
f 92/114/92 93/115/93 91/113/91
f 93/115/93 92/114/92 94/116/94
f 79/98/79 93/115/93 95/117/95
f 93/115/93 79/98/79 82/101/82
f 94/116/94 95/117/95 93/115/93
f 95/117/95 94/116/94 67/118/67
f 76/95/76 95/117/95 69/119/69
f 95/117/95 76/95/76 79/98/79
f 67/118/67 69/119/69 95/117/95
f 94/116/94 96/120/96 65/121/65
f 96/120/96 94/116/94 92/114/92
f 65/121/65 67/118/67 94/116/94
f 96/120/96 97/122/97 63/123/63
f 97/122/97 96/120/96 98/124/98
f 92/114/92 98/124/98 96/120/96
f 63/123/63 65/121/65 96/120/96
f 98/124/98 99/125/99 97/122/97
f 99/125/99 98/124/98 100/126/100
f 90/112/90 100/126/100 98/124/98
f 98/124/98 92/114/92 90/112/90
f 100/126/100 101/127/101 99/125/99
f 101/127/101 100/126/100 102/128/102
f 89/111/89 102/128/102 100/126/100
f 100/126/100 90/112/90 89/111/89
f 102/128/102 103/129/103 101/127/101
f 103/129/103 102/128/102 104/130/104
f 105/131/105 104/130/104 102/128/102
f 102/128/102 89/111/89 105/131/105
f 104/130/104 105/131/105 11/132/11
f 12/133/12 11/132/11 105/131/105
f 87/108/87 105/131/105 89/111/89
f 105/131/105 87/108/87 12/133/12
f 104/130/104 106/134/106 103/129/103
f 106/134/106 104/130/104 10/135/10
f 11/132/11 10/135/10 104/130/104
f 106/134/106 43/56/43 45/58/45
f 43/56/43 106/134/106 9/136/9
f 10/135/10 9/136/9 106/134/106
f 45/58/45 103/129/103 106/134/106
f 103/129/103 45/58/45 48/61/48
f 48/61/48 101/127/101 103/129/103
f 101/127/101 48/61/48 51/64/51
f 51/64/51 99/125/99 101/127/101
f 99/125/99 51/64/51 54/67/54
f 54/67/54 97/122/97 99/125/99
f 97/122/97 54/67/54 58/73/58
f 58/73/58 63/123/63 97/122/97
f 13/110/13 12/133/12 87/108/87
f 16/137/16 15/105/15 83/102/83
f 107/138/107 83/102/83 80/99/80
f 83/102/83 107/138/107 16/137/16
f 17/19/17 16/137/16 107/138/107
f 18/20/18 107/138/107 108/139/108
f 107/138/107 18/20/18 17/19/17
f 80/99/80 108/139/108 107/138/107
f 108/139/108 80/99/80 77/96/77
f 20/23/20 108/139/108 109/140/109
f 108/139/108 20/23/20 18/20/18
f 77/96/77 109/140/109 108/139/108
f 109/140/109 77/96/77 74/93/74
f 28/36/28 109/140/109 110/141/110
f 109/140/109 28/36/28 20/23/20
f 74/93/74 110/141/110 109/140/109
f 110/141/110 74/93/74 72/90/72
f 29/37/29 110/141/110 111/142/111
f 110/141/110 29/37/29 28/36/28
f 72/90/72 111/142/111 110/141/110
f 111/142/111 72/90/72 60/89/60
f 31/39/31 111/142/111 59/143/59
f 111/142/111 31/39/31 29/37/29
f 60/89/60 59/143/59 111/142/111
f 69/119/69 71/92/71 76/95/76
f 68/144/68 70/145/70 112/146/112
f 53/66/53 112/146/112 70/145/70
f 70/145/70 56/69/56 53/66/53
f 112/146/112 113/147/113 68/144/68
f 113/147/113 112/146/112 114/148/114
f 50/63/50 114/148/114 112/146/112
f 112/146/112 53/66/53 50/63/50
f 114/148/114 35/44/35 113/147/113
f 35/44/35 114/148/114 38/48/38
f 47/60/47 38/48/38 114/148/114
f 114/148/114 50/63/50 47/60/47
f 113/147/113 36/45/36 66/149/66
f 36/45/36 113/147/113 35/44/35
f 66/149/66 68/144/68 113/147/113
f 64/150/64 66/151/66 36/46/36
f 62/152/62 64/150/64 32/40/32
f 36/46/36 32/40/32 64/150/64
f 59/143/59 62/152/62 31/39/31
f 32/40/32 31/39/31 62/152/62
f 38/48/38 47/60/47 41/51/41
f 9/136/9 8/55/8 43/56/43
f 39/49/39 23/29/23 25/32/25
f 23/29/23 39/49/39 5/153/5
f 6/54/6 5/153/5 39/49/39
f 21/24/21 20/23/20 28/36/28
f 5/153/5 4/26/4 23/29/23
