# Blender v3.0.0 OBJ File: ''
# www.blender.org
mtllib bola7.mtl
o POOL_TABLE.031
v -0.510887 1.038675 -0.098680
v -0.506603 1.036449 -0.109022
v -0.510887 1.036449 -0.109874
v -0.515170 1.036449 -0.109022
v -0.518802 1.036449 -0.106595
v -0.521228 1.036449 -0.102964
v -0.522080 1.036449 -0.098680
v -0.521228 1.036449 -0.094396
v -0.518802 1.036449 -0.090765
v -0.515170 1.036449 -0.088338
v -0.510887 1.036449 -0.087486
v -0.502972 1.036449 -0.090765
v -0.500545 1.036449 -0.094396
v -0.506603 1.036449 -0.088338
v -0.499693 1.036449 -0.098680
v -0.500545 1.036449 -0.102964
v -0.502972 1.036449 -0.106595
v -0.510887 1.030108 -0.077997
v -0.502972 1.030108 -0.079571
v -0.510887 1.020618 -0.071656
v -0.496261 1.030108 -0.084055
v -0.500545 1.020618 -0.073713
v -0.510887 1.009425 -0.069429
v -0.491778 1.020618 -0.079571
v -0.499693 1.009425 -0.071656
v -0.510887 0.998231 -0.071656
v -0.521228 0.998231 -0.073713
v -0.522080 1.009425 -0.071656
v -0.521228 1.020618 -0.073713
v -0.531570 1.009425 -0.077997
v -0.529996 0.998231 -0.079571
v -0.518802 1.030108 -0.079571
v -0.529996 1.020618 -0.079571
v -0.525512 1.030108 -0.084055
v -0.529996 1.030108 -0.090765
v -0.535854 1.020618 -0.088338
v -0.537911 1.020618 -0.098680
v -0.540137 1.009425 -0.098680
v -0.537911 1.009425 -0.087486
v -0.537911 0.998231 -0.098680
v -0.535854 0.998231 -0.088338
v -0.531570 0.988741 -0.098680
v -0.529996 0.988741 -0.090765
v -0.522080 0.982401 -0.098680
v -0.525512 0.988741 -0.084055
v -0.521228 0.982401 -0.094396
v -0.510887 0.980174 -0.098680
v -0.518802 0.982401 -0.090765
v -0.506603 0.982401 -0.088338
v -0.510887 0.982401 -0.087486
v -0.515170 0.982401 -0.088338
v -0.510887 0.982401 -0.109874
v -0.506603 0.982401 -0.109022
v -0.515170 0.982401 -0.109022
v -0.502972 0.982401 -0.090765
v -0.518802 0.982401 -0.106595
v -0.500545 0.982401 -0.094396
v -0.521228 0.982401 -0.102964
v -0.499693 0.982401 -0.098680
v -0.500545 0.982401 -0.102964
v -0.502972 0.982401 -0.106595
v -0.510887 0.988741 -0.077997
v -0.518802 0.988741 -0.079571
v -0.500545 0.998231 -0.073713
v -0.502972 0.988741 -0.079571
v -0.490203 1.009425 -0.077997
v -0.491778 0.998231 -0.079571
v -0.483863 1.009425 -0.087486
v -0.485920 1.020618 -0.088338
v -0.491778 1.030108 -0.090765
v -0.490203 1.030108 -0.098680
v -0.483863 1.020618 -0.098680
v -0.491778 1.030108 -0.106595
v -0.496262 1.030108 -0.113305
v -0.485920 1.020618 -0.109022
v -0.481636 1.009425 -0.098680
v -0.483863 1.009425 -0.109874
v -0.491778 1.020618 -0.117789
v -0.502972 1.030108 -0.117789
v -0.500545 1.020618 -0.123647
v -0.490203 1.009425 -0.119363
v -0.510887 1.030108 -0.119363
v -0.518802 1.030108 -0.117789
v -0.510887 1.020618 -0.125704
v -0.499693 1.009425 -0.125704
v -0.510887 1.009425 -0.127931
v -0.521228 1.020618 -0.123647
v -0.500545 0.998231 -0.123647
v -0.522080 1.009425 -0.125704
v -0.510887 0.998231 -0.125704
v -0.502972 0.988741 -0.117789
v -0.491778 0.998231 -0.117789
v -0.496262 0.988741 -0.113305
v -0.510887 0.988741 -0.119363
v -0.521228 0.998231 -0.123647
v -0.518802 0.988741 -0.117789
v -0.531570 1.009425 -0.119363
v -0.529996 0.998231 -0.117789
v -0.529996 1.020618 -0.117789
v -0.537911 1.009425 -0.109874
v -0.535854 1.020618 -0.109022
v -0.529996 1.030108 -0.106595
v -0.531570 1.030108 -0.098680
v -0.525512 1.030108 -0.113305
v -0.535854 0.998231 -0.109022
v -0.525512 0.988741 -0.113305
v -0.529996 0.988741 -0.106595
v -0.491778 0.988741 -0.106595
v -0.490203 0.988741 -0.098680
v -0.485920 0.998231 -0.109022
v -0.483863 0.998231 -0.098680
v -0.485920 0.998231 -0.088338
v -0.491778 0.988741 -0.090765
v -0.496261 0.988741 -0.084055
vt 0.799195 0.970317
vt 0.792060 0.975085
vt 0.790779 0.971992
vt 0.790779 0.968644
vt 0.792060 0.965549
vt 0.794427 0.963181
vt 0.797522 0.961901
vt 0.800870 0.961901
vt 0.803963 0.963181
vt 0.806332 0.965549
vt 0.807613 0.968644
vt 0.806332 0.975085
vt 0.803963 0.977454
vt 0.807613 0.971992
vt 0.800870 0.978735
vt 0.797522 0.978735
vt 0.794427 0.977453
vt 0.075119 0.833033
vt 0.080478 0.833033
vt 0.080478 0.838641
vt 0.069759 0.833033
vt 0.075119 0.838641
vt 0.080478 0.844249
vt 0.069759 0.838641
vt 0.075119 0.844249
vt 0.080478 0.849857
vt 0.069759 0.844249
vt 0.075119 0.849857
vt 0.080478 0.855465
vt 0.085837 0.855465
vt 0.085837 0.849857
vt 0.085837 0.844249
vt 0.091197 0.849857
vt 0.091197 0.855465
vt 0.085837 0.838641
vt 0.091197 0.844249
vt 0.085837 0.833033
vt 0.091197 0.838641
vt 0.096556 0.838641
vt 0.096556 0.844249
vt 0.091197 0.833033
vt 0.101915 0.844249
vt 0.101915 0.849857
vt 0.096556 0.849857
vt 0.101915 0.855465
vt 0.096556 0.855465
vt 0.101915 0.861073
vt 0.096556 0.861073
vt 0.101915 0.866681
vt 0.091197 0.861073
vt 0.096556 0.866681
vt 0.624209 0.965485
vt 0.625883 0.973902
vt 0.622535 0.973902
vt 0.628977 0.972620
vt 0.091197 0.866681
vt 0.632626 0.963811
vt 0.632626 0.967159
vt 0.631344 0.970253
vt 0.615792 0.963811
vt 0.617073 0.960717
vt 0.615792 0.967159
vt 0.631344 0.960717
vt 0.617073 0.970253
vt 0.628977 0.958349
vt 0.619441 0.972620
vt 0.625883 0.957067
vt 0.622535 0.957067
vt 0.619441 0.958349
vt 0.085837 0.866681
vt 0.080478 0.866681
vt 0.080478 0.861073
vt 0.085837 0.861073
vt 0.075119 0.855465
vt 0.075119 0.861073
vt 0.069759 0.849857
vt 0.069759 0.855465
vt 0.064400 0.849857
vt 0.064400 0.844249
vt 0.064400 0.838641
vt 0.059042 0.838641
vt 0.059042 0.844249
vt 0.059042 0.833033
vt 0.053683 0.833033
vt 0.053683 0.838641
vt 0.048324 0.833033
vt 0.048324 0.838641
vt 0.053683 0.844249
vt 0.059042 0.849857
vt 0.053683 0.849857
vt 0.048324 0.844249
vt 0.042964 0.838641
vt 0.042964 0.844249
vt 0.048324 0.849857
vt 0.037605 0.838641
vt 0.037605 0.833033
vt 0.042964 0.833033
vt 0.117993 0.833033
vt 0.123352 0.833033
vt 0.123352 0.838641
vt 0.117993 0.838641
vt 0.123352 0.844249
vt 0.037605 0.844249
vt 0.042964 0.849857
vt 0.037605 0.849857
vt 0.117993 0.844249
vt 0.123352 0.849857
vt 0.042964 0.855465
vt 0.117993 0.849857
vt 0.123352 0.855465
vt 0.037605 0.855465
vt 0.042964 0.861073
vt 0.048324 0.855465
vt 0.048324 0.861073
vt 0.037605 0.861073
vt 0.042964 0.866681
vt 0.048324 0.866681
vt 0.117993 0.855465
vt 0.123352 0.861073
vt 0.117993 0.861073
vt 0.123352 0.866681
vt 0.037605 0.866681
vt 0.112634 0.849857
vt 0.112634 0.855465
vt 0.112634 0.844249
vt 0.107275 0.849857
vt 0.107275 0.844249
vt 0.107275 0.838641
vt 0.101915 0.838641
vt 0.101915 0.833033
vt 0.096556 0.833033
vt 0.112634 0.838641
vt 0.107275 0.833033
vt 0.112634 0.833033
vt 0.107275 0.855465
vt 0.112634 0.861073
vt 0.107275 0.861073
vt 0.112634 0.866681
vt 0.107275 0.866681
vt 0.117993 0.866681
vt 0.053683 0.861073
vt 0.053683 0.866681
vt 0.059042 0.861073
vt 0.059042 0.866681
vt 0.053683 0.855465
vt 0.059042 0.855465
vt 0.064400 0.855465
vt 0.064400 0.861073
vt 0.069759 0.861073
vt 0.069759 0.866681
vt 0.064400 0.866681
vt 0.075119 0.866681
vt 0.064400 0.833033
vn -0.0000 1.0000 0.0000
vn 0.1543 0.9152 -0.3724
vn -0.0000 0.9152 -0.4031
vn -0.1543 0.9152 -0.3724
vn -0.2850 0.9152 -0.2850
vn -0.3724 0.9152 -0.1542
vn -0.4031 0.9152 0.0000
vn -0.3724 0.9152 0.1542
vn -0.2850 0.9152 0.2850
vn -0.1543 0.9152 0.3724
vn -0.0000 0.9152 0.4031
vn 0.2850 0.9152 0.2850
vn 0.3724 0.9152 0.1543
vn 0.1543 0.9152 0.3724
vn 0.4031 0.9152 -0.0000
vn 0.3724 0.9152 -0.1543
vn 0.2850 0.9152 -0.2850
vn -0.0000 0.6951 0.7189
vn 0.2751 0.6951 0.6642
vn -0.0000 0.3744 0.9273
vn 0.5083 0.6951 0.5083
vn 0.3549 0.3744 0.8567
vn -0.0000 0.0000 1.0000
vn 0.6557 0.3744 0.6557
vn 0.3827 0.0000 0.9239
vn 0.0000 -0.3744 0.9273
vn -0.3549 -0.3744 0.8567
vn -0.3827 0.0000 0.9239
vn -0.3548 0.3744 0.8567
vn -0.7071 0.0000 0.7071
vn -0.6557 -0.3744 0.6557
vn -0.2751 0.6951 0.6642
vn -0.6557 0.3744 0.6557
vn -0.5083 0.6952 0.5083
vn -0.6641 0.6952 0.2751
vn -0.8567 0.3744 0.3549
vn -0.9273 0.3743 0.0000
vn -1.0000 0.0000 -0.0000
vn -0.9239 0.0000 0.3827
vn -0.9273 -0.3743 -0.0000
vn -0.8567 -0.3744 0.3549
vn -0.7188 -0.6952 0.0000
vn -0.6641 -0.6952 0.2751
vn -0.4031 -0.9152 -0.0000
vn -0.5083 -0.6952 0.5083
vn -0.3724 -0.9152 0.1542
vn -0.0000 -1.0000 0.0000
vn -0.2850 -0.9152 0.2850
vn 0.1543 -0.9152 0.3724
vn -0.0000 -0.9152 0.4031
vn -0.1543 -0.9152 0.3724
vn -0.0000 -0.9152 -0.4031
vn 0.1543 -0.9152 -0.3724
vn -0.1543 -0.9152 -0.3724
vn 0.2850 -0.9152 0.2850
vn -0.2850 -0.9152 -0.2850
vn 0.3724 -0.9152 0.1543
vn -0.3724 -0.9152 -0.1542
vn 0.4031 -0.9152 -0.0000
vn 0.3724 -0.9152 -0.1543
vn 0.2850 -0.9152 -0.2850
vn 0.0000 -0.6952 0.7188
vn -0.2751 -0.6952 0.6641
vn 0.3549 -0.3744 0.8567
vn 0.2751 -0.6952 0.6641
vn 0.7071 0.0000 0.7071
vn 0.6557 -0.3744 0.6557
vn 0.9239 0.0000 0.3827
vn 0.8567 0.3744 0.3549
vn 0.6641 0.6951 0.2751
vn 0.7189 0.6951 -0.0000
vn 0.9273 0.3744 0.0000
vn 0.6641 0.6951 -0.2751
vn 0.5083 0.6952 -0.5083
vn 0.8567 0.3744 -0.3549
vn 1.0000 0.0000 0.0000
vn 0.9239 0.0000 -0.3827
vn 0.6557 0.3744 -0.6557
vn 0.2751 0.6951 -0.6642
vn 0.3549 0.3744 -0.8567
vn 0.7071 0.0000 -0.7071
vn 0.0000 0.6951 -0.7189
vn -0.2751 0.6951 -0.6642
vn 0.0000 0.3744 -0.9273
vn 0.3827 0.0000 -0.9239
vn -0.0000 0.0000 -1.0000
vn -0.3549 0.3744 -0.8567
vn 0.3549 -0.3744 -0.8567
vn -0.3827 0.0000 -0.9239
vn -0.0000 -0.3744 -0.9273
vn 0.2751 -0.6952 -0.6641
vn 0.6557 -0.3744 -0.6557
vn 0.5083 -0.6952 -0.5083
vn -0.0000 -0.6952 -0.7188
vn -0.3548 -0.3743 -0.8567
vn -0.2751 -0.6952 -0.6641
vn -0.7071 0.0000 -0.7071
vn -0.6557 -0.3743 -0.6557
vn -0.6557 0.3744 -0.6557
vn -0.9239 0.0000 -0.3827
vn -0.8567 0.3744 -0.3549
vn -0.6641 0.6952 -0.2751
vn -0.7189 0.6952 -0.0000
vn -0.5083 0.6952 -0.5083
vn -0.8567 -0.3744 -0.3549
vn -0.5083 -0.6952 -0.5083
vn -0.6641 -0.6952 -0.2751
vn 0.6641 -0.6952 -0.2751
vn 0.7189 -0.6952 0.0000
vn 0.8567 -0.3744 -0.3549
vn 0.9273 -0.3744 0.0000
vn 0.8567 -0.3744 0.3549
vn 0.6641 -0.6952 0.2751
vn 0.5083 -0.6952 0.5083
usemtl (null)
s 1
f 1/1/1 2/2/2 3/3/3
f 1/1/1 3/3/3 4/4/4
f 1/1/1 4/4/4 5/5/5
f 1/1/1 5/5/5 6/6/6
f 1/1/1 6/6/6 7/7/7
f 1/1/1 7/7/7 8/8/8
f 1/1/1 8/8/8 9/9/9
f 1/1/1 9/9/9 10/10/10
f 1/1/1 10/10/10 11/11/11
f 1/1/1 12/12/12 13/13/13
f 1/1/1 14/14/14 12/12/12
f 1/1/1 13/13/13 15/15/15
f 1/1/1 15/15/15 16/16/16
f 1/1/1 16/16/16 17/17/17
f 1/1/1 17/17/17 2/2/2
f 1/1/1 11/11/11 14/14/14
f 14/18/14 11/19/11 18/20/18
f 12/21/12 14/18/14 19/22/19
f 18/20/18 19/22/19 14/18/14
f 19/22/19 18/20/18 20/23/20
f 21/24/21 19/22/19 22/25/22
f 19/22/19 21/24/21 12/21/12
f 20/23/20 22/25/22 19/22/19
f 22/25/22 20/23/20 23/26/23
f 24/27/24 22/25/22 25/28/25
f 22/25/22 24/27/24 21/24/21
f 23/26/23 25/28/25 22/25/22
f 25/28/25 23/26/23 26/29/26
f 27/30/27 26/29/26 23/26/23
f 23/26/23 28/31/28 27/30/27
f 28/31/28 23/26/23 20/23/20
f 20/23/20 29/32/29 28/31/28
f 28/31/28 30/33/30 31/34/31
f 30/33/30 28/31/28 29/32/29
f 31/34/31 27/30/27 28/31/28
f 29/32/29 20/23/20 18/20/18
f 18/20/18 32/35/32 29/32/29
f 29/32/29 33/36/33 30/33/30
f 33/36/33 29/32/29 32/35/32
f 32/35/32 18/20/18 11/19/11
f 11/19/11 10/37/10 32/35/32
f 32/35/32 34/38/34 33/36/33
f 34/38/34 32/35/32 10/37/10
f 34/38/34 35/39/35 36/40/36
f 35/39/35 34/38/34 9/41/9
f 10/37/10 9/41/9 34/38/34
f 36/40/36 33/36/33 34/38/34
f 36/40/36 37/42/37 38/43/38
f 37/42/37 36/40/36 35/39/35
f 33/36/33 36/40/36 39/44/39
f 38/43/38 39/44/39 36/40/36
f 39/44/39 38/43/38 40/45/40
f 30/33/30 39/44/39 41/46/41
f 39/44/39 30/33/30 33/36/33
f 40/45/40 41/46/41 39/44/39
f 41/46/41 40/45/40 42/47/42
f 31/34/31 41/46/41 43/48/43
f 41/46/41 31/34/31 30/33/30
f 42/47/42 43/48/43 41/46/41
f 43/48/43 42/47/42 44/49/44
f 45/50/45 43/48/43 46/51/46
f 43/48/43 45/50/45 31/34/31
f 44/49/44 46/51/46 43/48/43
f 47/52/47 46/53/46 44/54/44
f 47/52/47 48/55/48 46/53/46
f 46/51/46 48/56/48 45/50/45
f 47/52/47 49/57/49 50/58/50
f 47/52/47 50/58/50 51/59/51
f 47/52/47 52/60/52 53/61/53
f 47/52/47 54/62/54 52/60/52
f 47/52/47 55/63/55 49/57/49
f 47/52/47 56/64/56 54/62/54
f 47/52/47 57/65/57 55/63/55
f 47/52/47 58/66/58 56/64/56
f 47/52/47 59/67/59 57/65/57
f 47/52/47 44/54/44 58/66/58
f 47/52/47 60/68/60 59/67/59
f 47/52/47 61/69/61 60/68/60
f 47/52/47 53/61/53 61/69/61
f 47/52/47 51/59/51 48/55/48
f 51/70/51 50/71/50 62/72/62
f 62/72/62 63/73/63 51/70/51
f 48/56/48 51/70/51 63/73/63
f 63/73/63 62/72/62 26/29/26
f 26/29/26 27/30/27 63/73/63
f 63/73/63 45/50/45 48/56/48
f 45/50/45 63/73/63 27/30/27
f 64/74/64 26/29/26 62/72/62
f 65/75/65 62/72/62 50/71/50
f 62/72/62 65/75/65 64/74/64
f 26/29/26 64/74/64 25/28/25
f 66/76/66 25/28/25 64/74/64
f 67/77/67 64/74/64 65/75/65
f 64/74/64 67/77/67 66/76/66
f 25/28/25 66/76/66 24/27/24
f 68/78/68 66/76/66 67/77/67
f 66/76/66 68/78/68 69/79/69
f 69/79/69 24/27/24 66/76/66
f 24/27/24 69/79/69 70/80/70
f 71/81/71 70/80/70 69/79/69
f 72/82/72 69/79/69 68/78/68
f 69/79/69 72/82/72 71/81/71
f 70/80/70 71/81/71 15/83/15
f 16/84/16 15/83/15 71/81/71
f 73/85/73 71/81/71 72/82/72
f 71/81/71 73/85/73 16/84/16
f 17/86/17 16/84/16 73/85/73
f 74/87/74 73/85/73 75/88/75
f 73/85/73 74/87/74 17/86/17
f 72/82/72 75/88/75 73/85/73
f 75/88/75 72/82/72 76/89/76
f 76/89/76 77/90/77 75/88/75
f 78/91/78 75/88/75 77/90/77
f 75/88/75 78/91/78 74/87/74
f 79/92/79 74/87/74 78/91/78
f 80/93/80 78/91/78 81/94/81
f 78/91/78 80/93/80 79/92/79
f 77/90/77 81/94/81 78/91/78
f 79/92/79 82/95/82 3/96/3
f 3/96/3 2/97/2 79/92/79
f 82/95/82 79/92/79 80/93/80
f 74/87/74 79/92/79 2/97/2
f 4/98/4 3/99/3 82/100/82
f 83/101/83 82/100/82 84/102/84
f 82/100/82 83/101/83 4/98/4
f 80/93/80 84/103/84 82/95/82
f 84/103/84 80/93/80 85/104/85
f 85/104/85 86/105/86 84/103/84
f 87/106/87 84/102/84 86/107/86
f 84/102/84 87/106/87 83/101/83
f 86/105/86 85/104/85 88/108/88
f 89/109/89 86/107/86 90/110/90
f 86/107/86 89/109/89 87/106/87
f 88/108/88 90/111/90 86/105/86
f 90/111/90 88/108/88 91/112/91
f 88/108/88 92/113/92 93/114/93
f 92/113/92 88/108/88 85/104/85
f 93/114/93 91/112/91 88/108/88
f 94/115/94 91/112/91 53/116/53
f 91/112/91 94/115/94 90/111/90
f 91/112/91 93/114/93 61/117/61
f 61/117/61 53/116/53 91/112/91
f 95/118/95 90/110/90 94/119/94
f 96/120/96 94/119/94 52/121/52
f 94/119/94 96/120/96 95/118/95
f 53/116/53 52/122/52 94/115/94
f 90/110/90 95/118/95 89/109/89
f 97/123/97 89/109/89 95/118/95
f 98/124/98 95/118/95 96/120/96
f 95/118/95 98/124/98 97/123/97
f 89/109/89 97/123/97 99/125/99
f 100/126/100 97/123/97 98/124/98
f 97/123/97 100/126/100 101/127/101
f 101/127/101 99/125/99 97/123/97
f 99/125/99 101/127/101 102/128/102
f 103/129/103 102/128/102 101/127/101
f 37/42/37 101/127/101 100/126/100
f 101/127/101 37/42/37 103/129/103
f 102/128/102 103/129/103 7/130/7
f 8/131/8 7/130/7 103/129/103
f 35/39/35 103/129/103 37/42/37
f 103/129/103 35/39/35 8/131/8
f 102/128/102 104/132/104 99/125/99
f 104/132/104 102/128/102 6/133/6
f 7/130/7 6/133/6 102/128/102
f 104/132/104 83/101/83 87/106/87
f 83/101/83 104/132/104 5/134/5
f 6/133/6 5/134/5 104/132/104
f 87/106/87 99/125/99 104/132/104
f 99/125/99 87/106/87 89/109/89
f 38/43/38 100/126/100 105/135/105
f 100/126/100 38/43/38 37/42/37
f 98/124/98 105/135/105 100/126/100
f 105/135/105 98/124/98 106/136/106
f 40/45/40 105/135/105 107/137/107
f 105/135/105 40/45/40 38/43/38
f 106/136/106 107/137/107 105/135/105
f 107/137/107 106/136/106 56/138/56
f 42/47/42 107/137/107 58/139/58
f 107/137/107 42/47/42 40/45/40
f 56/138/56 58/139/58 107/137/107
f 106/136/106 96/120/96 54/140/54
f 96/120/96 106/136/106 98/124/98
f 54/140/54 56/138/56 106/136/106
f 52/121/52 54/140/54 96/120/96
f 93/114/93 108/141/108 60/142/60
f 108/141/108 93/114/93 92/113/92
f 60/142/60 61/117/61 93/114/93
f 108/141/108 109/143/109 59/144/59
f 109/143/109 108/141/108 110/145/110
f 59/144/59 60/142/60 108/141/108
f 92/113/92 110/145/110 108/141/108
f 110/145/110 111/146/111 109/143/109
f 111/146/111 110/145/110 77/90/77
f 110/145/110 92/113/92 81/94/81
f 81/94/81 77/90/77 110/145/110
f 111/146/111 112/147/112 113/148/113
f 112/147/112 111/146/111 76/89/76
f 77/90/77 76/89/76 111/146/111
f 113/148/113 109/143/109 111/146/111
f 113/148/113 114/149/114 55/150/55
f 114/149/114 113/148/113 112/147/112
f 109/143/109 113/148/113 57/151/57
f 55/150/55 57/151/57 113/148/113
f 114/149/114 65/75/65 49/152/49
f 65/75/65 114/149/114 67/77/67
f 112/147/112 67/77/67 114/149/114
f 49/152/49 55/150/55 114/149/114
f 67/77/67 112/147/112 68/78/68
f 76/89/76 68/78/68 112/147/112
f 57/151/57 59/144/59 109/143/109
f 85/104/85 81/94/81 92/113/92
f 81/94/81 85/104/85 80/93/80
f 5/134/5 4/98/4 83/101/83
f 68/78/68 76/89/76 72/82/72
f 2/97/2 17/86/17 74/87/74
f 70/80/70 21/24/21 24/27/24
f 21/24/21 70/80/70 13/153/13
f 15/83/15 13/153/13 70/80/70
f 50/71/50 49/152/49 65/75/65
f 58/139/58 44/49/44 42/47/42
f 27/30/27 31/34/31 45/50/45
f 9/41/9 8/131/8 35/39/35
f 13/153/13 12/21/12 21/24/21
