# Blender v3.0.0 OBJ File: ''
# www.blender.org
mtllib bola8.mtl
o POOL_TABLE.032
v -0.511903 1.038675 -0.040755
v -0.507619 1.036449 -0.051096
v -0.511903 1.036449 -0.051948
v -0.516187 1.036449 -0.051096
v -0.519818 1.036449 -0.048670
v -0.522245 1.036449 -0.045038
v -0.523097 1.036449 -0.040755
v -0.522245 1.036449 -0.036471
v -0.519818 1.036449 -0.032839
v -0.516187 1.036449 -0.030413
v -0.511903 1.036449 -0.029561
v -0.507619 1.036449 -0.030413
v -0.503988 1.036449 -0.032839
v -0.501561 1.036449 -0.036471
v -0.500709 1.036449 -0.040755
v -0.501561 1.036449 -0.045038
v -0.503988 1.036449 -0.048670
v -0.497278 1.030108 -0.055380
v -0.503988 1.030108 -0.059863
v -0.492794 1.030108 -0.048670
v -0.492794 1.020618 -0.059863
v -0.486936 1.020618 -0.051096
v -0.491220 1.030108 -0.040755
v -0.484879 1.020618 -0.040755
v -0.486936 1.020618 -0.030413
v -0.484879 1.009425 -0.029561
v -0.482652 1.009425 -0.040755
v -0.486936 0.998231 -0.030413
v -0.484879 1.009425 -0.051948
v -0.484879 0.998231 -0.040755
v -0.492794 0.988741 -0.032839
v -0.486936 0.998231 -0.051096
v -0.491220 0.988741 -0.040755
v -0.501561 0.982401 -0.036471
v -0.492794 0.988741 -0.048670
v -0.500709 0.982401 -0.040755
v -0.511903 0.980174 -0.040755
v -0.503988 0.982401 -0.032839
v -0.516187 0.982401 -0.030413
v -0.519818 0.982401 -0.032839
v -0.522245 0.982401 -0.036471
v -0.507619 0.982401 -0.051096
v -0.503988 0.982401 -0.048670
v -0.501561 0.982401 -0.045038
v -0.511903 0.982401 -0.029561
v -0.511903 0.982401 -0.051948
v -0.507619 0.982401 -0.030413
v -0.516187 0.982401 -0.051096
v -0.519818 0.982401 -0.048670
v -0.522245 0.982401 -0.045038
v -0.523097 0.982401 -0.040755
v -0.497278 0.988741 -0.055380
v -0.501561 0.998231 -0.065722
v -0.492794 0.998231 -0.059863
v -0.503988 0.988741 -0.059863
v -0.500709 1.009425 -0.067779
v -0.511903 0.998231 -0.067779
v -0.511903 1.009425 -0.070005
v -0.511903 1.020618 -0.067779
v -0.522245 1.020618 -0.065721
v -0.523097 1.009425 -0.067779
v -0.519818 1.030108 -0.059863
v -0.526528 1.030108 -0.055380
v -0.531012 1.020618 -0.059863
v -0.531012 1.030108 -0.048670
v -0.536870 1.020618 -0.051096
v -0.532586 1.030108 -0.040755
v -0.532586 1.009425 -0.061438
v -0.538927 1.020618 -0.040755
v -0.538927 1.009425 -0.051948
v -0.531012 0.998231 -0.059863
v -0.541154 1.009425 -0.040755
v -0.536870 0.998231 -0.051096
v -0.526528 0.988741 -0.055380
v -0.538927 0.998231 -0.040755
v -0.531012 0.988741 -0.048670
v -0.532586 0.988741 -0.040755
v -0.531012 0.988741 -0.032839
v -0.536870 0.998231 -0.030413
v -0.531012 0.998231 -0.021646
v -0.532586 1.009425 -0.020071
v -0.538927 1.009425 -0.029561
v -0.523097 1.009425 -0.013730
v -0.522245 0.998231 -0.015788
v -0.526528 0.988741 -0.026129
v -0.522245 1.020618 -0.015788
v -0.511903 1.020618 -0.013730
v -0.511903 1.009425 -0.011504
v -0.511903 1.030108 -0.020071
v -0.503988 1.030108 -0.021646
v -0.501561 1.020618 -0.015788
v -0.497278 1.030108 -0.026129
v -0.492794 1.030108 -0.032839
v -0.492794 1.020618 -0.021646
v -0.500709 1.009425 -0.013730
v -0.491220 1.009425 -0.020071
v -0.501561 0.998231 -0.015788
v -0.492794 0.998231 -0.021646
v -0.503988 0.988741 -0.021646
v -0.497278 0.988741 -0.026129
v -0.511903 0.988741 -0.020071
v -0.519818 0.988741 -0.021646
v -0.511903 0.998231 -0.013730
v -0.519818 1.030108 -0.021646
v -0.526528 1.030108 -0.026129
v -0.531012 1.020618 -0.021646
v -0.536870 1.020618 -0.030413
v -0.531012 1.030108 -0.032839
v -0.519818 0.988741 -0.059863
v -0.511903 0.988741 -0.061438
v -0.522245 0.998231 -0.065721
v -0.511903 1.030108 -0.061438
v -0.501561 1.020618 -0.065722
v -0.491220 1.009425 -0.061438
vt 0.826266 0.933581
vt 0.834683 0.935255
vt 0.833402 0.938349
vt 0.831035 0.940716
vt 0.827940 0.941998
vt 0.824592 0.941998
vt 0.821498 0.940717
vt 0.819130 0.938349
vt 0.817849 0.935255
vt 0.817849 0.931907
vt 0.819131 0.928812
vt 0.821498 0.926445
vt 0.824592 0.925164
vt 0.827940 0.925164
vt 0.831034 0.926445
vt 0.833402 0.928813
vt 0.834683 0.931907
vt 0.614702 0.899558
vt 0.609343 0.899558
vt 0.609343 0.893951
vt 0.620062 0.899558
vt 0.614702 0.893951
vt 0.603985 0.893951
vt 0.609343 0.888343
vt 0.603985 0.888343
vt 0.603985 0.899558
vt 0.598626 0.893951
vt 0.598626 0.888343
vt 0.593266 0.888343
vt 0.593266 0.882735
vt 0.598626 0.882735
vt 0.593266 0.877127
vt 0.603985 0.882735
vt 0.598626 0.877127
vt 0.593266 0.871519
vt 0.603985 0.877127
vt 0.598626 0.871519
vt 0.593266 0.865911
vt 0.603985 0.871519
vt 0.598626 0.865911
vt 0.647411 0.972252
vt 0.642643 0.979388
vt 0.640276 0.977020
vt 0.587907 0.865911
vt 0.645738 0.980668
vt 0.640276 0.967484
vt 0.642643 0.965115
vt 0.645738 0.963835
vt 0.654548 0.977020
vt 0.652179 0.979388
vt 0.649086 0.980668
vt 0.638995 0.970577
vt 0.655829 0.973925
vt 0.638995 0.973925
vt 0.655829 0.970577
vt 0.654548 0.967484
vt 0.652179 0.965116
vt 0.649086 0.963835
vt 0.603985 0.865911
vt 0.609343 0.865911
vt 0.609343 0.871519
vt 0.614702 0.877127
vt 0.609343 0.877127
vt 0.614702 0.871519
vt 0.614702 0.882735
vt 0.620062 0.877127
vt 0.620062 0.882735
vt 0.620062 0.888343
vt 0.539675 0.888343
vt 0.534315 0.888343
vt 0.534315 0.882735
vt 0.539675 0.882735
vt 0.534315 0.877127
vt 0.539675 0.893951
vt 0.545034 0.893951
vt 0.545034 0.888343
vt 0.545034 0.899558
vt 0.550392 0.899558
vt 0.550392 0.893951
vt 0.550392 0.888343
vt 0.555751 0.899558
vt 0.555751 0.893951
vt 0.545034 0.882735
vt 0.555751 0.888343
vt 0.550392 0.882735
vt 0.545034 0.877127
vt 0.555751 0.882735
vt 0.550392 0.877127
vt 0.545034 0.871519
vt 0.555751 0.877127
vt 0.550392 0.871519
vt 0.545034 0.865911
vt 0.550392 0.865911
vt 0.555751 0.871519
vt 0.561111 0.871519
vt 0.555751 0.865911
vt 0.561111 0.877127
vt 0.566470 0.877127
vt 0.566470 0.882735
vt 0.561111 0.882735
vt 0.571829 0.882735
vt 0.571829 0.877127
vt 0.566470 0.871519
vt 0.571829 0.888343
vt 0.577189 0.888343
vt 0.577189 0.882735
vt 0.577189 0.893951
vt 0.582548 0.893951
vt 0.582548 0.888343
vt 0.582548 0.899558
vt 0.587907 0.899558
vt 0.587907 0.893951
vt 0.593266 0.893951
vt 0.587907 0.888343
vt 0.593266 0.899558
vt 0.582548 0.882735
vt 0.587907 0.882735
vt 0.582548 0.877127
vt 0.587907 0.877127
vt 0.582548 0.871519
vt 0.587907 0.871519
vt 0.582548 0.865911
vt 0.577189 0.871519
vt 0.577189 0.865911
vt 0.571829 0.871519
vt 0.571829 0.865911
vt 0.577189 0.877127
vt 0.566470 0.865911
vt 0.598626 0.899558
vt 0.571829 0.893951
vt 0.577189 0.899558
vt 0.566470 0.893951
vt 0.566470 0.888343
vt 0.571829 0.899558
vt 0.561111 0.888343
vt 0.561111 0.893951
vt 0.566470 0.899558
vt 0.561111 0.899558
vt 0.561111 0.865911
vt 0.539675 0.871519
vt 0.539675 0.865911
vt 0.534315 0.871519
vt 0.534315 0.865911
vt 0.539675 0.877127
vt 0.620062 0.871519
vt 0.614702 0.865911
vt 0.620062 0.865911
vt 0.534315 0.893951
vt 0.539675 0.899558
vt 0.620062 0.893951
vt 0.614702 0.888343
vt 0.534315 0.899558
vt 0.609343 0.882735
vn 0.0000 1.0000 -0.0000
vn 0.1542 0.9152 -0.3724
vn 0.0000 0.9152 -0.4031
vn -0.1543 0.9152 -0.3724
vn -0.2850 0.9152 -0.2850
vn -0.3724 0.9152 -0.1543
vn -0.4031 0.9152 -0.0000
vn -0.3724 0.9152 0.1542
vn -0.2850 0.9152 0.2850
vn -0.1542 0.9152 0.3724
vn -0.0000 0.9152 0.4031
vn 0.1543 0.9152 0.3724
vn 0.2850 0.9152 0.2850
vn 0.3724 0.9152 0.1543
vn 0.4031 0.9152 -0.0000
vn 0.3724 0.9152 -0.1543
vn 0.2850 0.9152 -0.2850
vn 0.5083 0.6951 -0.5083
vn 0.2751 0.6952 -0.6641
vn 0.6642 0.6951 -0.2751
vn 0.6557 0.3744 -0.6557
vn 0.8567 0.3744 -0.3549
vn 0.7189 0.6951 -0.0000
vn 0.9273 0.3744 0.0000
vn 0.8567 0.3744 0.3548
vn 0.9239 0.0000 0.3827
vn 1.0000 0.0000 -0.0000
vn 0.8567 -0.3744 0.3549
vn 0.9239 0.0000 -0.3827
vn 0.9273 -0.3744 -0.0000
vn 0.6641 -0.6952 0.2751
vn 0.8567 -0.3743 -0.3549
vn 0.7189 -0.6952 -0.0000
vn 0.3724 -0.9152 0.1542
vn 0.6641 -0.6952 -0.2751
vn 0.4031 -0.9152 -0.0000
vn 0.0000 -1.0000 -0.0000
vn 0.2850 -0.9152 0.2850
vn -0.1542 -0.9152 0.3724
vn -0.2850 -0.9152 0.2850
vn -0.3724 -0.9152 0.1542
vn 0.1543 -0.9152 -0.3724
vn 0.2850 -0.9152 -0.2850
vn 0.3724 -0.9152 -0.1543
vn 0.0000 -0.9152 0.4031
vn -0.0000 -0.9152 -0.4031
vn 0.1542 -0.9152 0.3724
vn -0.1542 -0.9152 -0.3724
vn -0.2850 -0.9152 -0.2850
vn -0.3724 -0.9152 -0.1543
vn -0.4031 -0.9152 -0.0000
vn 0.5083 -0.6952 -0.5083
vn 0.3549 -0.3744 -0.8567
vn 0.6557 -0.3744 -0.6557
vn 0.2751 -0.6952 -0.6641
vn 0.3827 -0.0000 -0.9239
vn -0.0000 -0.3744 -0.9273
vn -0.0000 0.0000 -1.0000
vn -0.0000 0.3744 -0.9273
vn -0.3549 0.3744 -0.8567
vn -0.3827 0.0000 -0.9239
vn -0.2751 0.6951 -0.6641
vn -0.5083 0.6951 -0.5083
vn -0.6557 0.3744 -0.6557
vn -0.6642 0.6951 -0.2751
vn -0.8567 0.3744 -0.3549
vn -0.7189 0.6951 -0.0000
vn -0.7071 0.0000 -0.7071
vn -0.9273 0.3744 -0.0000
vn -0.9239 0.0000 -0.3827
vn -0.6557 -0.3744 -0.6557
vn -1.0000 0.0000 -0.0000
vn -0.8567 -0.3744 -0.3549
vn -0.5083 -0.6952 -0.5083
vn -0.9273 -0.3744 0.0000
vn -0.6641 -0.6952 -0.2751
vn -0.7188 -0.6952 -0.0000
vn -0.6641 -0.6952 0.2751
vn -0.8567 -0.3743 0.3548
vn -0.6557 -0.3744 0.6557
vn -0.7071 0.0000 0.7071
vn -0.9239 0.0000 0.3827
vn -0.3827 -0.0000 0.9239
vn -0.3549 -0.3744 0.8567
vn -0.5083 -0.6952 0.5083
vn -0.3549 0.3744 0.8567
vn 0.0000 0.3744 0.9273
vn 0.0000 0.0000 1.0000
vn -0.0000 0.6951 0.7189
vn 0.2751 0.6951 0.6641
vn 0.3549 0.3744 0.8567
vn 0.5083 0.6951 0.5083
vn 0.6642 0.6951 0.2751
vn 0.6557 0.3744 0.6557
vn 0.3827 0.0000 0.9239
vn 0.7071 0.0000 0.7071
vn 0.3549 -0.3744 0.8567
vn 0.6557 -0.3744 0.6557
vn 0.2751 -0.6952 0.6641
vn 0.5083 -0.6952 0.5083
vn 0.0000 -0.6952 0.7188
vn -0.2751 -0.6952 0.6641
vn -0.0000 -0.3744 0.9273
vn -0.2751 0.6951 0.6641
vn -0.5083 0.6951 0.5084
vn -0.6557 0.3744 0.6557
vn -0.8567 0.3744 0.3549
vn -0.6642 0.6951 0.2751
vn -0.2751 -0.6952 -0.6641
vn -0.0000 -0.6952 -0.7188
vn -0.3549 -0.3744 -0.8567
vn -0.0000 0.6952 -0.7189
vn 0.3549 0.3744 -0.8567
vn 0.7071 0.0000 -0.7071
usemtl (null)
s 1
f 1/1/1 2/2/2 3/3/3
f 1/1/1 3/3/3 4/4/4
f 1/1/1 4/4/4 5/5/5
f 1/1/1 5/5/5 6/6/6
f 1/1/1 6/6/6 7/7/7
f 1/1/1 7/7/7 8/8/8
f 1/1/1 8/8/8 9/9/9
f 1/1/1 9/9/9 10/10/10
f 1/1/1 10/10/10 11/11/11
f 1/1/1 11/11/11 12/12/12
f 1/1/1 12/12/12 13/13/13
f 1/1/1 13/13/13 14/14/14
f 1/1/1 14/14/14 15/15/15
f 1/1/1 15/15/15 16/16/16
f 1/1/1 16/16/16 17/17/17
f 1/1/1 17/17/17 2/2/2
f 2/18/2 17/19/17 18/20/18
f 3/21/3 2/18/2 19/22/19
f 18/20/18 19/22/19 2/18/2
f 20/23/20 18/20/18 17/19/17
f 19/22/19 18/20/18 21/24/21
f 22/25/22 21/24/21 18/20/18
f 18/20/18 20/23/20 22/25/22
f 17/19/17 16/26/16 20/23/20
f 20/23/20 23/27/23 24/28/24
f 23/27/23 20/23/20 16/26/16
f 24/28/24 22/25/22 20/23/20
f 24/28/24 25/29/25 26/30/26
f 25/29/25 24/28/24 23/27/23
f 22/25/22 24/28/24 27/31/27
f 26/30/26 27/31/27 24/28/24
f 27/31/27 26/30/26 28/32/28
f 29/33/29 27/31/27 30/34/30
f 27/31/27 29/33/29 22/25/22
f 28/32/28 30/34/30 27/31/27
f 30/34/30 28/32/28 31/35/31
f 32/36/32 30/34/30 33/37/33
f 30/34/30 32/36/32 29/33/29
f 31/35/31 33/37/33 30/34/30
f 33/37/33 31/35/31 34/38/34
f 35/39/35 33/37/33 36/40/36
f 34/38/34 36/40/36 33/37/33
f 33/37/33 35/39/35 32/36/32
f 37/41/37 34/42/34 38/43/38
f 38/44/38 34/38/34 31/35/31
f 37/41/37 36/45/36 34/42/34
f 37/41/37 39/46/39 40/47/40
f 37/41/37 40/47/40 41/48/41
f 37/41/37 42/49/42 43/50/43
f 37/41/37 43/50/43 44/51/44
f 37/41/37 45/52/45 39/46/39
f 37/41/37 46/53/46 42/49/42
f 37/41/37 47/54/47 45/52/45
f 37/41/37 48/55/48 46/53/46
f 37/41/37 38/43/38 47/54/47
f 37/41/37 49/56/49 48/55/48
f 37/41/37 50/57/50 49/56/49
f 37/41/37 51/58/51 50/57/50
f 37/41/37 44/51/44 36/45/36
f 37/41/37 41/48/41 51/58/51
f 44/59/44 43/60/43 52/61/52
f 52/61/52 35/39/35 44/59/44
f 36/40/36 44/59/44 35/39/35
f 53/62/53 54/63/54 52/61/52
f 35/39/35 52/61/52 54/63/54
f 55/64/55 52/61/52 43/60/43
f 52/61/52 55/64/55 53/62/53
f 54/63/54 53/62/53 56/65/56
f 57/66/57 53/62/53 55/64/55
f 58/67/58 56/65/56 53/62/53
f 53/62/53 57/66/57 58/67/58
f 56/65/56 58/67/58 59/68/59
f 60/69/60 59/70/59 58/71/58
f 61/72/61 58/71/58 57/73/57
f 58/71/58 61/72/61 60/69/60
f 59/70/59 60/69/60 62/74/62
f 63/75/63 62/74/62 60/69/60
f 64/76/64 60/69/60 61/72/61
f 60/69/60 64/76/64 63/75/63
f 62/74/62 63/75/63 5/77/5
f 6/78/6 5/77/5 63/75/63
f 65/79/65 63/75/63 64/76/64
f 63/75/63 65/79/65 6/78/6
f 64/76/64 66/80/66 65/79/65
f 7/81/7 6/78/6 65/79/65
f 67/82/67 65/79/65 66/80/66
f 65/79/65 67/82/67 7/81/7
f 66/80/66 64/76/64 68/83/68
f 69/84/69 66/80/66 70/85/70
f 66/80/66 69/84/69 67/82/67
f 68/83/68 70/85/70 66/80/66
f 70/85/70 68/83/68 71/86/71
f 72/87/72 70/85/70 73/88/73
f 70/85/70 72/87/72 69/84/69
f 71/86/71 73/88/73 70/85/70
f 73/88/73 71/86/71 74/89/74
f 75/90/75 73/88/73 76/91/76
f 73/88/73 75/90/75 72/87/72
f 74/89/74 76/91/76 73/88/73
f 76/91/76 74/89/74 49/92/49
f 49/92/49 50/93/50 76/91/76
f 77/94/77 76/91/76 50/93/50
f 76/91/76 77/94/77 75/90/75
f 78/95/78 77/94/77 51/96/51
f 77/94/77 78/95/78 79/97/79
f 79/97/79 75/90/75 77/94/77
f 50/93/50 51/96/51 77/94/77
f 79/97/79 80/98/80 81/99/81
f 81/99/81 82/100/82 79/97/79
f 75/90/75 79/97/79 82/100/82
f 80/98/80 79/97/79 78/95/78
f 83/101/83 81/99/81 80/98/80
f 84/102/84 80/98/80 85/103/85
f 80/98/80 84/102/84 83/101/83
f 78/95/78 85/103/85 80/98/80
f 81/99/81 83/101/83 86/104/86
f 87/105/87 86/104/86 83/101/83
f 88/106/88 83/101/83 84/102/84
f 83/101/83 88/106/88 87/105/87
f 86/104/86 87/105/87 89/107/89
f 90/108/90 89/107/89 87/105/87
f 91/109/91 87/105/87 88/106/88
f 87/105/87 91/109/91 90/108/90
f 89/107/89 90/108/90 12/110/12
f 13/111/13 12/110/12 90/108/90
f 92/112/92 90/108/90 91/109/91
f 90/108/90 92/112/92 13/111/13
f 93/113/93 92/112/92 94/114/94
f 92/112/92 93/113/93 14/115/14
f 91/109/91 94/114/94 92/112/92
f 14/115/14 13/111/13 92/112/92
f 94/114/94 91/109/91 95/116/95
f 25/29/25 94/114/94 96/117/96
f 94/114/94 25/29/25 93/113/93
f 95/116/95 96/117/96 94/114/94
f 96/117/96 95/116/95 97/118/97
f 26/30/26 96/117/96 98/119/98
f 96/117/96 26/30/26 25/29/25
f 97/118/97 98/119/98 96/117/96
f 98/119/98 97/118/97 99/120/99
f 28/32/28 98/119/98 100/121/100
f 98/119/98 28/32/28 26/30/26
f 99/120/99 100/121/100 98/119/98
f 100/121/100 99/120/99 47/122/47
f 31/35/31 100/121/100 38/44/38
f 100/121/100 31/35/31 28/32/28
f 47/122/47 38/44/38 100/121/100
f 99/120/99 101/123/101 45/124/45
f 101/123/101 99/120/99 97/118/97
f 45/124/45 47/122/47 99/120/99
f 101/123/101 102/125/102 39/126/39
f 102/125/102 101/123/101 103/127/103
f 39/126/39 45/124/45 101/123/101
f 97/118/97 103/127/103 101/123/101
f 103/127/103 84/102/84 102/125/102
f 84/102/84 103/127/103 88/106/88
f 95/116/95 88/106/88 103/127/103
f 103/127/103 97/118/97 95/116/95
f 102/125/102 85/103/85 40/128/40
f 85/103/85 102/125/102 84/102/84
f 40/128/40 39/126/39 102/125/102
f 88/106/88 95/116/95 91/109/91
f 15/129/15 14/115/14 93/113/93
f 23/27/23 93/113/93 25/29/25
f 93/113/93 23/27/23 15/129/15
f 89/107/89 104/130/104 86/104/86
f 104/130/104 89/107/89 11/131/11
f 12/110/12 11/131/11 89/107/89
f 104/130/104 105/132/105 106/133/106
f 105/132/105 104/130/104 10/134/10
f 11/131/11 10/134/10 104/130/104
f 106/133/106 86/104/86 104/130/104
f 107/135/107 106/133/106 105/132/105
f 86/104/86 106/133/106 81/99/81
f 82/100/82 81/99/81 106/133/106
f 106/133/106 107/135/107 82/100/82
f 105/132/105 108/136/108 107/135/107
f 107/135/107 69/84/69 72/87/72
f 69/84/69 107/135/107 108/136/108
f 72/87/72 82/100/82 107/135/107
f 108/136/108 105/132/105 9/137/9
f 9/137/9 8/138/8 108/136/108
f 108/136/108 67/82/67 69/84/69
f 67/82/67 108/136/108 8/138/8
f 10/134/10 9/137/9 105/132/105
f 41/139/41 40/128/40 85/103/85
f 85/103/85 78/95/78 41/139/41
f 82/100/82 72/87/72 75/90/75
f 51/96/51 41/139/41 78/95/78
f 74/89/74 109/140/109 48/141/48
f 109/140/109 74/89/74 71/86/71
f 48/141/48 49/92/49 74/89/74
f 109/140/109 110/142/110 46/143/46
f 110/142/110 109/140/109 111/144/111
f 46/143/46 48/141/48 109/140/109
f 71/86/71 111/144/111 109/140/109
f 111/144/111 57/73/57 110/142/110
f 57/73/57 111/144/111 61/72/61
f 68/83/68 61/72/61 111/144/111
f 111/144/111 71/86/71 68/83/68
f 55/64/55 110/145/110 57/66/57
f 42/146/42 46/147/46 110/145/110
f 110/145/110 55/64/55 42/146/42
f 61/72/61 68/83/68 64/76/64
f 8/138/8 7/81/7 67/82/67
f 62/74/62 112/148/112 59/70/59
f 112/148/112 62/74/62 4/149/4
f 5/77/5 4/149/4 62/74/62
f 112/150/112 19/22/19 113/151/113
f 19/22/19 112/150/112 3/21/3
f 4/149/4 3/152/3 112/148/112
f 113/151/113 59/68/59 112/150/112
f 113/151/113 21/24/21 114/153/114
f 21/24/21 113/151/113 19/22/19
f 114/153/114 56/65/56 113/151/113
f 59/68/59 113/151/113 56/65/56
f 29/33/29 114/153/114 21/24/21
f 56/65/56 114/153/114 54/63/54
f 32/36/32 54/63/54 114/153/114
f 114/153/114 29/33/29 32/36/32
f 43/60/43 42/146/42 55/64/55
f 54/63/54 32/36/32 35/39/35
f 21/24/21 22/25/22 29/33/29
f 16/26/16 15/129/15 23/27/23
