# Blender v3.0.0 OBJ File: ''
# www.blender.org
mtllib bola9.mtl
o POOL_TABLE.033
v -0.511903 1.038675 0.017171
v -0.511903 1.036449 0.028365
v -0.507619 1.036449 0.027513
v -0.516187 1.036449 0.027513
v -0.507619 1.036449 0.006829
v -0.511903 1.036449 0.005977
v -0.516187 1.036449 0.006829
v -0.519818 1.036449 0.009256
v -0.522245 1.036449 0.012887
v -0.523097 1.036449 0.017171
v -0.522245 1.036449 0.021455
v -0.519818 1.036449 0.025086
v -0.503988 1.036449 0.025086
v -0.501561 1.036449 0.021455
v -0.500709 1.036449 0.017171
v -0.501561 1.036449 0.012887
v -0.503988 1.036449 0.009256
v -0.519818 1.030108 -0.001938
v -0.526528 1.030108 0.002546
v -0.522245 1.020618 -0.007796
v -0.531012 1.030108 0.009256
v -0.531012 1.020618 -0.001938
v -0.523097 1.009425 -0.009853
v -0.532586 1.009425 -0.003512
v -0.536870 1.020618 0.006829
v -0.538927 1.020618 0.017171
v -0.532586 1.030108 0.017171
v -0.538927 1.009425 0.005977
v -0.541154 1.009425 0.017171
v -0.531012 0.998231 -0.001938
v -0.536870 0.998231 0.006829
v -0.538927 0.998231 0.017171
v -0.526528 0.988741 0.002546
v -0.531012 0.988741 0.009256
v -0.532586 0.988741 0.017171
v -0.519818 0.982401 0.009256
v -0.522245 0.982401 0.012887
v -0.523097 0.982401 0.017171
v -0.511903 0.980174 0.017171
v -0.522245 0.982401 0.021455
v -0.501561 0.982401 0.012887
v -0.500709 0.982401 0.017171
v -0.501561 0.982401 0.021455
v -0.519818 0.982401 0.025086
v -0.503988 0.982401 0.009256
v -0.516187 0.982401 0.027513
v -0.507619 0.982401 0.006829
v -0.511903 0.982401 0.028365
v -0.511903 0.982401 0.005977
v -0.507619 0.982401 0.027513
v -0.516187 0.982401 0.006829
v -0.503988 0.982401 0.025086
v -0.491220 0.988741 0.017171
v -0.492794 0.988741 0.025086
v -0.484879 0.998231 0.017171
v -0.486936 0.998231 0.027513
v -0.497278 0.988741 0.031796
v -0.482652 1.009425 0.017171
v -0.484879 1.009425 0.028365
v -0.492794 0.998231 0.036280
v -0.484879 1.020618 0.017171
v -0.486936 1.020618 0.027513
v -0.491220 1.009425 0.037854
v -0.491220 1.030108 0.017171
v -0.492794 1.030108 0.025086
v -0.492794 1.020618 0.036280
v -0.497278 1.030108 0.031796
v -0.503988 1.030108 0.036280
v -0.501561 1.020618 0.042138
v -0.511903 1.020618 0.044195
v -0.511903 1.009425 0.046422
v -0.500709 1.009425 0.044195
v -0.511903 0.998231 0.044195
v -0.501561 0.998231 0.042138
v -0.511903 0.988741 0.037854
v -0.503988 0.988741 0.036280
v -0.519818 0.988741 0.036280
v -0.526528 0.988741 0.031796
v -0.522245 0.998231 0.042138
v -0.531012 0.998231 0.036280
v -0.523097 1.009425 0.044195
v -0.532586 1.009425 0.037854
v -0.522245 1.020618 0.042138
v -0.531012 1.020618 0.036280
v -0.519818 1.030108 0.036280
v -0.511903 1.030108 0.037854
v -0.526528 1.030108 0.031796
v -0.531012 1.030108 0.025086
v -0.536870 1.020618 0.027513
v -0.538927 1.009425 0.028365
v -0.536870 0.998231 0.027513
v -0.531012 0.988741 0.025086
v -0.492794 1.030108 0.009256
v -0.497278 1.030108 0.002546
v -0.486936 1.020618 0.006829
v -0.492794 1.020618 -0.001938
v -0.484879 1.009425 0.005977
v -0.491220 1.009425 -0.003512
v -0.486936 0.998231 0.006829
v -0.492794 0.998231 -0.001938
v -0.492794 0.988741 0.009256
v -0.497278 0.988741 0.002546
v -0.501561 0.998231 -0.007796
v -0.503988 0.988741 -0.001938
v -0.500709 1.009425 -0.009853
v -0.511903 0.998231 -0.009853
v -0.511903 1.009425 -0.012080
v -0.511903 1.020618 -0.009853
v -0.501561 1.020618 -0.007796
v -0.511903 1.030108 -0.003512
v -0.503988 1.030108 -0.001938
v -0.522245 0.998231 -0.007796
v -0.511903 0.988741 -0.003512
v -0.519818 0.988741 -0.001938
vt 0.301306 0.952916
vt 0.306074 0.945780
vt 0.308442 0.948148
vt 0.302980 0.944499
vt 0.299632 0.961333
vt 0.296538 0.960052
vt 0.294170 0.957685
vt 0.292889 0.954590
vt 0.292889 0.951242
vt 0.294170 0.948148
vt 0.296537 0.945781
vt 0.299632 0.944499
vt 0.309723 0.951242
vt 0.309723 0.954590
vt 0.308441 0.957685
vt 0.306074 0.960052
vt 0.302980 0.961333
vt 0.755147 0.877292
vt 0.760507 0.877292
vt 0.760507 0.882900
vt 0.749789 0.877292
vt 0.755147 0.882900
vt 0.760507 0.888507
vt 0.749789 0.882900
vt 0.755147 0.888507
vt 0.760507 0.894115
vt 0.755147 0.894115
vt 0.749789 0.888507
vt 0.744430 0.888507
vt 0.744430 0.882900
vt 0.749788 0.894115
vt 0.744430 0.894115
vt 0.755147 0.899723
vt 0.749788 0.899723
vt 0.744430 0.899723
vt 0.755147 0.905331
vt 0.749788 0.905331
vt 0.744430 0.905331
vt 0.755147 0.910939
vt 0.749788 0.910939
vt 0.744430 0.910939
vt 0.199794 0.929714
vt 0.208211 0.928040
vt 0.208211 0.931388
vt 0.206931 0.924946
vt 0.204562 0.922578
vt 0.195026 0.936850
vt 0.192658 0.934482
vt 0.191377 0.931388
vt 0.201468 0.921296
vt 0.198120 0.938131
vt 0.198120 0.921296
vt 0.201468 0.938131
vt 0.195026 0.922578
vt 0.204562 0.936850
vt 0.192658 0.924946
vt 0.206930 0.934482
vt 0.191377 0.928040
vt 0.706915 0.910939
vt 0.701556 0.910939
vt 0.701556 0.905331
vt 0.706915 0.905331
vt 0.712274 0.910939
vt 0.701556 0.899723
vt 0.706915 0.899723
vt 0.712274 0.905331
vt 0.701556 0.894115
vt 0.706915 0.894115
vt 0.712274 0.899723
vt 0.701556 0.888507
vt 0.706915 0.888507
vt 0.712274 0.894115
vt 0.701556 0.882900
vt 0.706915 0.882900
vt 0.712274 0.888507
vt 0.701556 0.877292
vt 0.706915 0.877292
vt 0.712274 0.882900
vt 0.717633 0.882900
vt 0.717633 0.888507
vt 0.712274 0.877292
vt 0.722993 0.888507
vt 0.722993 0.894115
vt 0.717633 0.894115
vt 0.722993 0.899723
vt 0.717633 0.899723
vt 0.722993 0.905331
vt 0.717633 0.905331
vt 0.722993 0.910939
vt 0.717633 0.910939
vt 0.728352 0.905331
vt 0.728352 0.910939
vt 0.733711 0.905331
vt 0.733711 0.910939
vt 0.728352 0.899723
vt 0.733711 0.899723
vt 0.728352 0.894115
vt 0.733711 0.894115
vt 0.728352 0.888507
vt 0.733711 0.888507
vt 0.728352 0.882900
vt 0.722993 0.882900
vt 0.722993 0.877292
vt 0.717633 0.877292
vt 0.733711 0.882900
vt 0.728352 0.877292
vt 0.739071 0.882900
vt 0.739071 0.888507
vt 0.733711 0.877292
vt 0.739071 0.894115
vt 0.739071 0.899723
vt 0.739071 0.905331
vt 0.739071 0.910939
vt 0.739071 0.877292
vt 0.696196 0.877292
vt 0.696196 0.882900
vt 0.690837 0.877292
vt 0.690837 0.882900
vt 0.696196 0.888507
vt 0.690837 0.888507
vt 0.696196 0.894115
vt 0.690837 0.894115
vt 0.696196 0.899723
vt 0.690837 0.899723
vt 0.696196 0.905331
vt 0.690837 0.905331
vt 0.696196 0.910939
vt 0.685479 0.899723
vt 0.685479 0.905331
vt 0.690837 0.910939
vt 0.685479 0.894115
vt 0.680120 0.899723
vt 0.680120 0.894115
vt 0.765866 0.894115
vt 0.765866 0.899723
vt 0.680120 0.888507
vt 0.765866 0.888507
vt 0.685479 0.888507
vt 0.680120 0.882900
vt 0.765866 0.882900
vt 0.685479 0.882900
vt 0.680120 0.877292
vt 0.765866 0.877292
vt 0.685479 0.877292
vt 0.760507 0.899723
vt 0.765866 0.905331
vt 0.680120 0.905331
vt 0.685479 0.910939
vt 0.680120 0.910939
vt 0.760507 0.905331
vt 0.765866 0.910939
vt 0.760507 0.910939
vt 0.744430 0.877292
vn 0.0000 1.0000 0.0000
vn 0.0000 0.9152 0.4031
vn 0.1543 0.9152 0.3724
vn -0.1543 0.9152 0.3724
vn 0.1543 0.9152 -0.3724
vn -0.0000 0.9152 -0.4031
vn -0.1543 0.9152 -0.3724
vn -0.2850 0.9152 -0.2850
vn -0.3724 0.9152 -0.1543
vn -0.4031 0.9152 -0.0000
vn -0.3724 0.9152 0.1543
vn -0.2850 0.9152 0.2850
vn 0.2850 0.9152 0.2850
vn 0.3724 0.9152 0.1543
vn 0.4031 0.9152 -0.0000
vn 0.3724 0.9152 -0.1543
vn 0.2850 0.9152 -0.2850
vn -0.2751 0.6951 -0.6641
vn -0.5083 0.6952 -0.5083
vn -0.3549 0.3744 -0.8567
vn -0.6642 0.6951 -0.2751
vn -0.6557 0.3744 -0.6557
vn -0.3827 -0.0000 -0.9239
vn -0.7071 0.0000 -0.7071
vn -0.8567 0.3744 -0.3549
vn -0.9273 0.3744 -0.0000
vn -0.7189 0.6951 -0.0000
vn -0.9239 0.0000 -0.3827
vn -1.0000 0.0000 -0.0000
vn -0.6557 -0.3743 -0.6557
vn -0.8567 -0.3744 -0.3549
vn -0.9273 -0.3744 0.0000
vn -0.5083 -0.6952 -0.5083
vn -0.6641 -0.6952 -0.2751
vn -0.7188 -0.6952 0.0000
vn -0.2850 -0.9152 -0.2850
vn -0.3724 -0.9152 -0.1543
vn -0.4031 -0.9152 -0.0000
vn 0.0000 -1.0000 -0.0000
vn -0.3724 -0.9152 0.1543
vn 0.3724 -0.9152 -0.1543
vn 0.4031 -0.9152 0.0000
vn 0.3724 -0.9152 0.1543
vn -0.2850 -0.9152 0.2850
vn 0.2850 -0.9152 -0.2850
vn -0.1543 -0.9152 0.3724
vn 0.1543 -0.9152 -0.3724
vn -0.0000 -0.9152 0.4031
vn 0.0000 -0.9152 -0.4031
vn 0.1543 -0.9152 0.3724
vn -0.1543 -0.9152 -0.3724
vn 0.2850 -0.9152 0.2850
vn 0.7188 -0.6952 -0.0000
vn 0.6641 -0.6952 0.2751
vn 0.9273 -0.3744 -0.0000
vn 0.8567 -0.3744 0.3549
vn 0.5083 -0.6952 0.5083
vn 1.0000 0.0000 0.0000
vn 0.9239 0.0000 0.3827
vn 0.6557 -0.3744 0.6557
vn 0.9273 0.3744 0.0000
vn 0.8567 0.3744 0.3549
vn 0.7071 0.0000 0.7071
vn 0.7189 0.6951 0.0000
vn 0.6642 0.6951 0.2751
vn 0.6557 0.3744 0.6557
vn 0.5083 0.6952 0.5083
vn 0.2751 0.6951 0.6642
vn 0.3549 0.3744 0.8567
vn -0.0000 0.3744 0.9273
vn 0.0000 0.0000 1.0000
vn 0.3827 -0.0000 0.9239
vn 0.0000 -0.3744 0.9273
vn 0.3549 -0.3744 0.8567
vn 0.0000 -0.6952 0.7188
vn 0.2751 -0.6952 0.6641
vn -0.2751 -0.6952 0.6641
vn -0.5083 -0.6952 0.5083
vn -0.3549 -0.3744 0.8567
vn -0.6557 -0.3743 0.6557
vn -0.3827 0.0000 0.9239
vn -0.7071 0.0000 0.7071
vn -0.3549 0.3744 0.8567
vn -0.6557 0.3744 0.6557
vn -0.2751 0.6951 0.6642
vn -0.0000 0.6951 0.7189
vn -0.5083 0.6952 0.5083
vn -0.6641 0.6951 0.2751
vn -0.8567 0.3744 0.3549
vn -0.9239 -0.0000 0.3827
vn -0.8567 -0.3744 0.3549
vn -0.6641 -0.6952 0.2751
vn 0.6642 0.6951 -0.2751
vn 0.5083 0.6952 -0.5083
vn 0.8567 0.3744 -0.3549
vn 0.6557 0.3744 -0.6557
vn 0.9239 0.0000 -0.3827
vn 0.7071 0.0000 -0.7071
vn 0.8567 -0.3744 -0.3549
vn 0.6557 -0.3744 -0.6557
vn 0.6641 -0.6952 -0.2751
vn 0.5083 -0.6952 -0.5083
vn 0.3549 -0.3744 -0.8567
vn 0.2751 -0.6952 -0.6641
vn 0.3827 0.0000 -0.9239
vn -0.0000 -0.3744 -0.9273
vn -0.0000 0.0000 -1.0000
vn 0.0000 0.3744 -0.9273
vn 0.3549 0.3744 -0.8567
vn 0.0000 0.6951 -0.7189
vn 0.2751 0.6951 -0.6642
vn -0.3549 -0.3744 -0.8567
vn -0.0000 -0.6952 -0.7189
vn -0.2751 -0.6952 -0.6641
usemtl (null)
s 1
f 1/1/1 2/2/2 3/3/3
f 1/1/1 4/4/4 2/2/2
f 1/1/1 5/5/5 6/6/6
f 1/1/1 6/6/6 7/7/7
f 1/1/1 7/7/7 8/8/8
f 1/1/1 9/9/9 10/10/10
f 1/1/1 8/8/8 9/9/9
f 1/1/1 10/10/10 11/11/11
f 1/1/1 11/11/11 12/12/12
f 1/1/1 12/12/12 4/4/4
f 1/1/1 3/3/3 13/13/13
f 1/1/1 13/13/13 14/14/14
f 1/1/1 14/14/14 15/15/15
f 1/1/1 15/15/15 16/16/16
f 1/1/1 16/16/16 17/17/17
f 1/1/1 17/17/17 5/5/5
f 8/18/8 7/19/7 18/20/18
f 9/21/9 8/18/8 19/22/19
f 18/20/18 19/22/19 8/18/8
f 19/22/19 18/20/18 20/23/20
f 21/24/21 19/22/19 22/25/22
f 19/22/19 21/24/21 9/21/9
f 20/23/20 22/25/22 19/22/19
f 22/25/22 20/23/20 23/26/23
f 23/26/23 24/27/24 22/25/22
f 25/28/25 22/25/22 24/27/24
f 22/25/22 25/28/25 21/24/21
f 25/28/25 26/29/26 27/30/27
f 27/30/27 21/24/21 25/28/25
f 26/29/26 25/28/25 28/31/28
f 24/27/24 28/31/28 25/28/25
f 28/31/28 29/32/29 26/29/26
f 28/31/28 24/27/24 30/33/30
f 29/32/29 28/31/28 31/34/31
f 30/33/30 31/34/31 28/31/28
f 31/34/31 32/35/32 29/32/29
f 31/34/31 30/33/30 33/36/33
f 32/35/32 31/34/31 34/37/34
f 33/36/33 34/37/34 31/34/31
f 34/37/34 35/38/35 32/35/32
f 34/37/34 33/36/33 36/39/36
f 35/38/35 34/37/34 37/40/37
f 36/39/36 37/40/37 34/37/34
f 37/40/37 38/41/38 35/38/35
f 39/42/39 37/43/37 36/44/36
f 39/42/39 38/45/38 37/43/37
f 39/42/39 40/46/40 38/45/38
f 39/42/39 41/47/41 42/48/42
f 39/42/39 42/48/42 43/49/43
f 39/42/39 44/50/44 40/46/40
f 39/42/39 45/51/45 41/47/41
f 39/42/39 46/52/46 44/50/44
f 39/42/39 47/53/47 45/51/45
f 39/42/39 48/54/48 46/52/46
f 39/42/39 49/55/49 47/53/47
f 39/42/39 50/56/50 48/54/48
f 39/42/39 51/57/51 49/55/49
f 39/42/39 52/58/52 50/56/50
f 39/42/39 36/44/36 51/57/51
f 39/42/39 43/49/43 52/58/52
f 43/59/43 42/60/42 53/61/53
f 53/61/53 54/62/54 43/59/43
f 52/63/52 43/59/43 54/62/54
f 54/62/54 53/61/53 55/64/55
f 55/64/55 56/65/56 54/62/54
f 54/62/54 57/66/57 52/63/52
f 57/66/57 54/62/54 56/65/56
f 56/65/56 55/64/55 58/67/58
f 58/67/58 59/68/59 56/65/56
f 56/65/56 60/69/60 57/66/57
f 60/69/60 56/65/56 59/68/59
f 59/68/59 58/67/58 61/70/61
f 61/70/61 62/71/62 59/68/59
f 59/68/59 63/72/63 60/69/60
f 63/72/63 59/68/59 62/71/62
f 62/71/62 61/70/61 64/73/64
f 64/73/64 65/74/65 62/71/62
f 62/71/62 66/75/66 63/72/63
f 66/75/66 62/71/62 65/74/65
f 65/74/65 64/73/64 15/76/15
f 15/76/15 14/77/14 65/74/65
f 65/74/65 67/78/67 66/75/66
f 67/78/67 65/74/65 14/77/14
f 67/78/67 68/79/68 69/80/69
f 68/79/68 67/78/67 13/81/13
f 14/77/14 13/81/13 67/78/67
f 69/80/69 66/75/66 67/78/67
f 69/80/69 70/82/70 71/83/71
f 70/82/70 69/80/69 68/79/68
f 66/75/66 69/80/69 72/84/72
f 71/83/71 72/84/72 69/80/69
f 72/84/72 71/83/71 73/85/73
f 63/72/63 72/84/72 74/86/74
f 72/84/72 63/72/63 66/75/66
f 73/85/73 74/86/74 72/84/72
f 74/86/74 73/85/73 75/87/75
f 60/69/60 74/86/74 76/88/76
f 74/86/74 60/69/60 63/72/63
f 75/87/75 76/88/76 74/86/74
f 76/88/76 75/87/75 48/89/48
f 57/66/57 76/88/76 50/90/50
f 76/88/76 57/66/57 60/69/60
f 48/89/48 50/90/50 76/88/76
f 75/87/75 77/91/77 46/92/46
f 77/91/77 75/87/75 73/85/73
f 46/92/46 48/89/48 75/87/75
f 77/91/77 78/93/78 44/94/44
f 78/93/78 77/91/77 79/95/79
f 73/85/73 79/95/79 77/91/77
f 44/94/44 46/92/46 77/91/77
f 79/95/79 80/96/80 78/93/78
f 80/96/80 79/95/79 81/97/81
f 71/83/71 81/97/81 79/95/79
f 79/95/79 73/85/73 71/83/71
f 81/97/81 82/98/82 80/96/80
f 82/98/82 81/97/81 83/99/83
f 70/82/70 83/99/83 81/97/81
f 81/97/81 71/83/71 70/82/70
f 83/99/83 84/100/84 82/98/82
f 84/100/84 83/99/83 85/101/85
f 86/102/86 85/101/85 83/99/83
f 83/99/83 70/82/70 86/102/86
f 85/101/85 86/102/86 2/103/2
f 3/104/3 2/103/2 86/102/86
f 68/79/68 86/102/86 70/82/70
f 86/102/86 68/79/68 3/104/3
f 85/101/85 87/105/87 84/100/84
f 87/105/87 85/101/85 4/106/4
f 2/103/2 4/106/4 85/101/85
f 87/105/87 88/107/88 89/108/89
f 88/107/88 87/105/87 12/109/12
f 4/106/4 12/109/12 87/105/87
f 89/108/89 84/100/84 87/105/87
f 89/108/89 26/29/26 29/32/29
f 26/29/26 89/108/89 88/107/88
f 84/100/84 89/108/89 90/110/90
f 29/32/29 90/110/90 89/108/89
f 90/110/90 29/32/29 32/35/32
f 82/98/82 90/110/90 91/111/91
f 90/110/90 82/98/82 84/100/84
f 32/35/32 91/111/91 90/110/90
f 91/111/91 32/35/32 35/38/35
f 80/96/80 91/111/91 92/112/92
f 91/111/91 80/96/80 82/98/82
f 35/38/35 92/112/92 91/111/91
f 92/112/92 35/38/35 38/41/38
f 78/93/78 92/112/92 40/113/40
f 92/112/92 78/93/78 80/96/80
f 38/41/38 40/113/40 92/112/92
f 88/107/88 27/30/27 26/29/26
f 27/30/27 88/107/88 11/114/11
f 12/109/12 11/114/11 88/107/88
f 40/113/40 44/94/44 78/93/78
f 13/81/13 3/104/3 68/79/68
f 16/115/16 15/76/15 64/73/64
f 93/116/93 64/73/64 61/70/61
f 64/73/64 93/116/93 16/115/16
f 17/117/17 16/115/16 93/116/93
f 94/118/94 93/116/93 95/119/95
f 93/116/93 94/118/94 17/117/17
f 61/70/61 95/119/95 93/116/93
f 95/119/95 61/70/61 58/67/58
f 96/120/96 95/119/95 97/121/97
f 95/119/95 96/120/96 94/118/94
f 58/67/58 97/121/97 95/119/95
f 97/121/97 58/67/58 55/64/55
f 98/122/98 97/121/97 99/123/99
f 97/121/97 98/122/98 96/120/96
f 55/64/55 99/123/99 97/121/97
f 99/123/99 55/64/55 53/61/53
f 100/124/100 99/123/99 101/125/101
f 99/123/99 100/124/100 98/122/98
f 53/61/53 101/125/101 99/123/99
f 101/125/101 53/61/53 42/60/42
f 102/126/102 101/125/101 41/127/41
f 101/125/101 102/126/102 100/124/100
f 42/60/42 41/127/41 101/125/101
f 103/128/103 100/124/100 102/126/102
f 104/129/104 102/126/102 45/130/45
f 102/126/102 104/129/104 103/128/103
f 41/127/41 45/130/45 102/126/102
f 100/124/100 103/128/103 105/131/105
f 106/132/106 103/128/103 104/129/104
f 107/133/107 105/131/105 103/128/103
f 103/128/103 106/132/106 107/133/107
f 23/26/23 107/134/107 106/135/106
f 105/131/105 107/133/107 108/136/108
f 20/23/20 108/137/108 107/134/107
f 107/134/107 23/26/23 20/23/20
f 108/136/108 109/138/109 105/131/105
f 109/138/109 108/136/108 110/139/110
f 18/20/18 110/140/110 108/137/108
f 108/137/108 20/23/20 18/20/18
f 110/140/110 18/20/18 7/19/7
f 110/139/110 111/141/111 109/138/109
f 111/141/111 110/139/110 6/142/6
f 7/19/7 6/143/6 110/140/110
f 111/141/111 94/118/94 96/120/96
f 94/118/94 111/141/111 5/144/5
f 6/142/6 5/144/5 111/141/111
f 96/120/96 109/138/109 111/141/111
f 109/138/109 96/120/96 98/122/98
f 98/122/98 105/131/105 109/138/109
f 112/145/112 106/135/106 113/146/113
f 106/135/106 112/145/112 23/26/23
f 104/129/104 113/147/113 106/132/106
f 113/147/113 104/129/104 47/148/47
f 47/148/47 49/149/49 113/147/113
f 114/150/114 113/146/113 49/151/49
f 113/146/113 114/150/114 112/145/112
f 30/33/30 112/145/112 114/150/114
f 33/36/33 114/150/114 51/152/51
f 114/150/114 33/36/33 30/33/30
f 49/151/49 51/152/51 114/150/114
f 24/27/24 23/26/23 112/145/112
f 112/145/112 30/33/30 24/27/24
f 105/131/105 98/122/98 100/124/100
f 45/130/45 47/148/47 104/129/104
f 5/144/5 17/117/17 94/118/94
f 50/90/50 52/63/52 57/66/57
f 51/152/51 36/39/36 33/36/33
f 11/114/11 10/153/10 27/30/27
f 21/24/21 27/30/27 10/153/10
f 10/153/10 9/21/9 21/24/21
