# Blender v3.0.0 OBJ File: ''
# www.blender.org
mtllib triangulo.mtl
o POOL_TABLE.022
v -0.569105 1.017155 -0.167707
v -0.579077 1.017155 -0.184537
v -0.595165 1.017155 -0.188402
v -0.325651 1.017155 -0.026213
v -0.307673 1.017155 -0.026213
v -0.307673 0.989724 -0.026213
v -0.579077 0.989724 -0.184537
v -0.595165 0.989724 -0.188402
v -0.600527 0.989724 -0.174168
v -0.606012 0.984990 -0.175099
v -0.598633 0.984990 -0.194685
v -0.576947 0.984990 -0.189474
v -0.576947 0.981696 -0.189474
v -0.598633 0.981696 -0.194685
v -0.303923 0.984990 -0.030206
v -0.296948 0.989724 -0.012427
v -0.290091 0.984990 -0.012427
v -0.303923 0.981696 -0.030206
v -0.307673 0.989724 0.001359
v -0.303923 0.984990 0.005352
v -0.290091 0.981696 -0.012427
v -0.296948 0.981696 -0.012427
v -0.303923 0.981696 0.005352
v -0.307673 0.981696 -0.026213
v -0.325651 0.981696 -0.026213
v -0.569105 0.981696 -0.167707
v -0.579077 0.981696 -0.184537
v -0.314926 0.981696 -0.012427
v -0.314926 1.017155 -0.012427
v -0.325651 0.981696 0.001359
v -0.307673 0.981696 0.001359
v -0.579077 0.981696 0.159683
v -0.576946 0.981696 0.164620
v -0.598633 0.981696 0.169832
v -0.576947 0.984990 0.164620
v -0.598633 0.984990 0.169831
v -0.595165 0.981696 0.163549
v -0.606012 0.981696 0.150245
v -0.606012 0.984990 0.150245
v -0.600527 0.989724 0.149314
v -0.600527 1.017155 0.149314
v -0.595165 0.989724 0.163549
v -0.595165 1.017155 0.163549
v -0.590555 1.017155 0.132484
v -0.590555 1.017155 -0.157338
v -0.600527 1.017155 -0.174168
v -0.585192 1.017155 -0.171572
v -0.585192 0.981696 -0.171572
v -0.590555 0.981696 -0.157338
v -0.595165 0.981696 -0.188402
v -0.590555 0.981696 0.132484
v -0.600527 0.981696 -0.174168
v -0.600527 0.981696 0.149314
v -0.606012 0.981696 -0.175099
v -0.585192 0.981696 0.146719
v -0.569105 0.981696 0.142853
v -0.585192 1.017155 0.146719
v -0.569105 1.017155 0.142853
v -0.579077 1.017155 0.159683
v -0.307673 1.017155 0.001359
v -0.325651 1.017155 0.001359
v -0.579077 0.989724 0.159683
v -0.296948 1.017155 -0.012427
vt 0.885600 0.493866
vt 0.890030 0.496397
vt 0.891048 0.500481
vt 0.848351 0.432082
vt 0.848351 0.427519
vt 0.097139 0.216221
vt 0.131193 0.285730
vt 0.123111 0.290309
vt 0.088581 0.219060
vt 0.086630 0.214513
vt 0.096231 0.212620
vt 0.086251 0.209867
vt 0.084178 0.209829
vt 0.084172 0.215133
vt 0.086798 0.219994
vt 0.085597 0.220602
vt 0.083134 0.215395
vt 0.121177 0.291311
vt 0.125673 0.294445
vt 0.124328 0.296685
vt 0.120061 0.291898
vt 0.123260 0.047104
vt 0.121329 0.046097
vt 0.124540 0.040699
vt 0.125869 0.042988
vt 0.123492 0.040053
vt 0.123321 0.297294
vt 0.863247 0.440310
vt 0.861490 0.440335
vt 0.864968 0.435557
vt 0.120197 0.045499
vt 0.861466 0.435945
vt 0.863223 0.435969
vt 0.865924 0.439667
vt 0.864947 0.440721
vt 0.870513 0.439728
vt 0.931970 0.477821
vt 0.934463 0.482306
vt 0.066644 0.209282
vt 0.078406 0.209282
vt 0.078406 0.281427
vt 0.066644 0.281427
vt 0.867827 0.436034
vt 0.078406 0.285963
vt 0.066644 0.039915
vt 0.078406 0.039915
vt 0.078406 0.044452
vt 0.066644 0.285963
vt 0.867851 0.440241
vt 0.865945 0.436609
vt 0.870536 0.436545
vt 0.934460 0.393912
vt 0.933895 0.392603
vt 0.939445 0.391155
vt 0.085736 0.116739
vt 0.086927 0.117331
vt 0.084363 0.122232
vt 0.083267 0.122000
vt 0.938566 0.392838
vt 0.941389 0.396375
vt 0.084412 0.127568
vt 0.083162 0.127570
vt 0.086414 0.127528
vt 0.095728 0.128682
vt 0.086816 0.122844
vt 0.096446 0.124802
vt 0.806574 0.499310
vt 0.802143 0.501842
vt 0.798396 0.500480
vt 0.882870 0.499311
vt 0.887301 0.501842
vt 0.095592 0.208743
vt 0.886617 0.497949
vt 0.078406 0.205074
vt 0.066644 0.205074
vt 0.066644 0.201088
vt 0.936067 0.478889
vt 0.078406 0.201088
vt 0.938571 0.483375
vt 0.937464 0.475178
vt 0.066644 0.124791
vt 0.078406 0.124791
vt 0.939957 0.479588
vt 0.937465 0.401039
vt 0.939957 0.396626
vt 0.941389 0.479838
vt 0.939450 0.485059
vt 0.082839 0.209835
vt 0.936067 0.397329
vt 0.931970 0.398400
vt 0.066644 0.120804
vt 0.078406 0.120804
vt 0.066644 0.116596
vt 0.078406 0.116596
vt 0.803844 0.493866
vt 0.799413 0.496397
vt 0.841093 0.427519
vt 0.841093 0.432082
vt 0.066644 0.044452
vt 0.802826 0.497949
vt 0.131318 0.051437
vt 0.097425 0.121159
vt 0.088720 0.118255
vt 0.844723 0.424797
vt 0.844723 0.429359
vt 0.133574 0.047605
vt 0.133574 0.289670
vt 0.933900 0.483615
vn 0.0000 1.0000 -0.0000
vn 0.3727 0.0000 -0.9279
vn 0.6585 0.0000 -0.7526
vn 0.2336 0.0000 -0.9723
vn -0.9358 0.0000 -0.3525
vn -0.9838 0.0000 -0.1792
vn -0.6377 0.7616 -0.1155
vn -0.6375 0.7616 -0.1169
vn -0.6130 0.7556 -0.2309
vn -0.6130 0.7556 -0.2310
vn 0.1556 0.7457 -0.6478
vn 0.2451 0.7504 -0.6138
vn -0.9358 0.0000 -0.3526
vn 0.2473 0.7505 -0.6129
vn 0.4289 0.7564 -0.4939
vn 0.4321 0.7564 -0.4910
vn 0.5196 0.7527 -0.4043
vn 0.7893 0.0000 -0.6140
vn 0.4289 0.7564 0.4939
vn 0.4321 0.7564 0.4910
vn 0.5197 0.7527 0.4043
vn 0.5196 0.7527 0.4042
vn 0.7893 -0.0000 0.6140
vn 0.6585 -0.0000 0.7526
vn 0.0000 -1.0000 -0.0000
vn -0.3720 -0.0000 0.9282
vn -0.6579 -0.0000 0.7531
vn -0.7893 0.0000 0.6140
vn -0.7893 0.0000 -0.6140
vn -0.6579 0.0000 -0.7531
vn 0.3728 0.0001 0.9279
vn 0.3727 0.0001 0.9280
vn 0.2337 0.0003 0.9723
vn -0.9838 0.0000 0.1792
vn -0.9358 0.0001 0.3525
vn -0.6377 0.7616 0.1155
vn -0.6375 0.7616 0.1169
vn -0.6130 0.7556 0.2309
vn -0.9838 0.0000 0.1791
vn -0.6131 0.7555 0.2309
vn -0.9358 0.0000 0.3525
vn 0.9358 0.0000 0.3526
vn 0.9838 0.0000 0.1792
vn -0.2336 0.0000 0.9723
vn 0.9838 0.0000 -0.1792
vn 0.9358 0.0000 -0.3526
vn -0.3720 0.0000 -0.9282
vn -0.2337 0.0000 -0.9723
vn 0.3727 0.0000 0.9279
vn 0.2337 0.0000 0.9723
vn 0.2452 0.7504 0.6138
vn 0.2473 0.7505 0.6129
vn 0.1557 0.7457 0.6479
usemtl (null)
s 1
f 1/1/1 2/2/1 3/3/1
f 2/2/1 1/1/1 4/4/1
f 4/4/1 5/5/1 2/2/1
f 2/6/2 5/7/3 6/8/3
f 6/8/3 7/9/2 2/6/2
f 2/6/2 7/9/2 8/10/4
f 8/10/4 3/11/4 2/6/2
f 3/11/5 8/10/5 9/12/6
f 10/13/7 9/12/8 8/10/9
f 8/10/9 11/14/10 10/13/7
f 11/14/11 8/10/11 7/9/12
f 11/14/4 12/15/2 13/16/2
f 13/16/2 14/17/4 11/14/4
f 10/13/6 11/14/5 14/17/13
f 7/9/12 12/15/14 11/14/11
f 6/8/15 15/18/16 12/15/14
f 13/16/2 12/15/2 15/18/3
f 12/15/14 7/9/12 6/8/15
f 16/19/17 17/20/17 15/18/16
f 15/18/16 6/8/15 16/19/17
f 18/21/3 15/18/3 17/20/18
f 15/18/3 18/21/3 13/16/2
f 19/22/19 20/23/20 17/24/21
f 17/24/21 16/25/22 19/22/19
f 21/26/23 17/24/23 20/23/24
f 17/20/18 21/27/18 18/21/3
f 22/28/25 21/29/25 23/30/25
f 20/23/24 23/31/24 21/26/23
f 21/32/25 22/33/25 24/34/25
f 24/34/25 18/35/25 21/32/25
f 24/34/25 25/36/25 26/37/25
f 26/37/25 27/38/25 24/34/25
f 18/35/25 24/34/25 27/38/25
f 25/36/25 24/34/25 22/33/25
f 1/39/26 26/40/26 25/41/27
f 25/41/27 4/42/27 1/39/26
f 22/33/25 28/43/25 25/36/25
f 4/42/27 25/41/27 28/44/28
f 29/45/29 28/46/29 30/47/30
f 28/44/28 29/48/28 4/42/27
f 28/49/25 22/28/25 31/50/25
f 31/50/25 30/51/25 28/49/25
f 30/51/25 31/50/25 32/52/25
f 33/53/25 32/52/25 31/50/25
f 23/30/25 31/50/25 22/28/25
f 31/50/25 23/30/25 33/53/25
f 32/52/25 33/53/25 34/54/25
f 33/55/31 35/56/32 36/57/33
f 35/56/32 33/55/31 23/31/24
f 36/57/33 34/58/33 33/55/31
f 34/54/25 37/59/25 32/52/25
f 37/59/25 34/54/25 38/60/25
f 39/61/34 38/62/34 34/58/35
f 34/58/35 36/57/35 39/61/34
f 38/62/34 39/61/34 10/13/6
f 9/12/8 10/13/7 39/61/36
f 39/61/36 40/63/37 9/12/8
f 40/63/37 39/61/36 36/57/38
f 9/12/6 40/63/39 41/64/39
f 36/57/38 42/65/40 40/63/37
f 40/63/39 42/65/41 43/66/41
f 43/66/41 41/64/39 40/63/39
f 44/67/1 41/68/1 43/69/1
f 41/68/1 44/67/1 45/70/1
f 45/70/1 46/71/1 41/68/1
f 41/64/39 46/72/6 9/12/6
f 46/71/1 45/70/1 47/73/1
f 9/12/6 46/72/6 3/11/5
f 47/73/1 3/3/1 46/71/1
f 48/74/42 47/75/42 45/76/43
f 47/75/44 48/74/44 26/40/26
f 26/40/26 1/39/26 47/75/44
f 3/3/1 47/73/1 1/1/1
f 27/38/25 26/37/25 48/77/25
f 45/76/43 49/78/43 48/74/42
f 48/77/25 50/79/25 27/38/25
f 50/79/25 48/77/25 49/80/25
f 49/78/43 45/76/43 44/81/45
f 44/81/45 51/82/45 49/78/43
f 52/83/25 49/80/25 51/84/25
f 49/80/25 52/83/25 50/79/25
f 51/84/25 53/85/25 52/83/25
f 54/86/25 52/83/25 53/85/25
f 52/83/25 54/86/25 14/87/25
f 14/87/25 50/79/25 52/83/25
f 10/13/6 54/88/6 38/62/34
f 14/17/13 54/88/6 10/13/6
f 53/85/25 38/60/25 54/86/25
f 53/85/25 51/84/25 55/89/25
f 55/89/25 37/59/25 53/85/25
f 38/60/25 53/85/25 37/59/25
f 37/59/25 55/89/25 56/90/25
f 57/91/46 55/92/46 51/82/45
f 58/93/47 56/94/47 55/92/48
f 55/92/48 57/91/48 58/93/47
f 58/95/1 59/96/1 60/97/1
f 60/97/1 61/98/1 58/95/1
f 56/94/47 58/93/47 61/99/30
f 59/96/1 58/95/1 57/100/1
f 60/101/24 59/102/49 62/103/49
f 42/65/50 62/103/49 59/102/49
f 57/100/1 43/69/1 59/96/1
f 59/102/49 43/66/50 42/65/50
f 20/23/20 19/22/19 62/103/51
f 62/103/49 19/22/24 60/101/24
f 35/56/52 62/103/51 42/65/53
f 62/103/51 35/56/52 20/23/20
f 61/98/1 60/97/1 63/104/1
f 30/47/30 61/99/30 29/45/29
f 61/99/30 30/47/30 56/94/47
f 63/104/1 29/105/1 61/98/1
f 29/105/1 63/104/1 5/5/1
f 19/22/24 16/25/23 63/106/23
f 63/106/23 60/101/24 19/22/24
f 5/7/3 63/107/18 16/19/18
f 51/82/45 44/81/45 57/91/46
f 43/69/1 57/100/1 44/67/1
f 32/52/25 56/90/25 30/51/25
f 56/90/25 32/52/25 37/59/25
f 13/108/25 27/38/25 50/79/25
f 50/79/25 14/87/25 13/108/25
f 42/65/53 36/57/53 35/56/52
f 23/31/24 20/23/24 35/56/32
f 5/5/1 4/4/1 29/105/1
f 27/38/25 13/108/25 18/35/25
f 16/19/18 6/8/3 5/7/3
